<?xml version="1.0" encoding="UTF-8"?>
<!DOCTYPE svg PUBLIC "-//W3C//DTD SVG 1.1//EN" "http://www.w3.org/Graphics/SVG/1.1/DTD/svg11.dtd">
<!-- Creator: CorelDRAW X7 -->
<svg xmlns="http://www.w3.org/2000/svg" xml:space="preserve" width="7.5in" height="7.5in" version="1.1" style="shape-rendering:geometricPrecision; text-rendering:geometricPrecision; image-rendering:optimizeQuality; fill-rule:evenodd; clip-rule:evenodd"
viewBox="0 0 7500 7500"
 xmlns:xlink="http://www.w3.org/1999/xlink">
 <defs>
  <style type="text/css">
   <![CDATA[
    .str0 {stroke:white;stroke-width:66.6654}
    .fil0 {fill:none}
    .fil2 {fill:white;fill-rule:nonzero}
    .fil1 {fill:url(#id0)}
   ]]>
  </style>
  <linearGradient id="id0" gradientUnits="userSpaceOnUse" x1="3750" y1="650" x2="3750" y2="6850">
   <stop offset="0" style="stop-opacity:1; stop-color:#007AFC"/>
   <stop offset="1" style="stop-opacity:1; stop-color:#004896"/>
  </linearGradient>
 </defs>
 <g id="Layer_x0020_1">
  <metadata id="CorelCorpID_0Corel-Layer"/>
  <rect class="fil0" width="7500" height="7500"/>
  <circle class="fil1" cx="3750" cy="3750" r="3100"/>
  <circle class="fil0 str0" cx="3750" cy="3750" r="2717"/>
  <path class="fil2" d="M2625 2173c524,3 1048,1 1572,1 193,3 393,7 573,84 82,33 152,92 209,159 57,83 94,178 112,277 33,172 30,349 15,523 -1,5 -2,16 -3,21 -21,127 -70,258 -175,340 -76,65 -175,91 -267,124 68,23 142,24 209,54 89,36 172,96 222,179 82,131 99,290 104,441 3,195 -2,398 -82,580 -60,139 -182,247 -325,296 -247,89 -514,70 -772,73 -464,2 -929,-2 -1394,2 6,-253 1,-507 3,-760 0,-798 2,-1596 -1,-2394zm598 526c5,26 8,51 8,77 -1,240 -1,481 0,722 104,-3 209,-3 313,-2 177,2 353,1 529,1 103,-2 214,0 306,-53 86,-49 120,-152 124,-245 12,-89 11,-179 1,-268l-3 -4c-7,-71 -38,-146 -102,-185 -77,-45 -170,-45 -257,-48 -303,-2 -606,1 -909,-1l3 5c-3,0 -10,1 -13,1zm8 1298c1,270 1,541 0,811 26,-1 51,-2 77,-4 18,5 38,2 57,3 278,-2 556,3 833,-2 121,-7 270,-20 339,-136 70,-128 60,-283 47,-423l-7 1 2 -12c-1,-61 -21,-123 -57,-172 -47,-61 -125,-87 -198,-98 -139,-15 -279,-10 -418,-11 -218,0 -436,0 -655,0 -30,-8 -18,27 -20,43z"/>
 </g>
</svg>
