<?xml version="1.0" encoding="UTF-8"?>
<!DOCTYPE svg PUBLIC "-//W3C//DTD SVG 1.1//EN" "http://www.w3.org/Graphics/SVG/1.1/DTD/svg11.dtd">
<!-- Creator: CorelDRAW X7 -->
<svg xmlns="http://www.w3.org/2000/svg" xml:space="preserve" width="10in" height="10in" version="1.1" style="shape-rendering:geometricPrecision; text-rendering:geometricPrecision; image-rendering:optimizeQuality; fill-rule:evenodd; clip-rule:evenodd"
viewBox="0 0 10000 10000"
 xmlns:xlink="http://www.w3.org/1999/xlink">
 <defs>
  <style type="text/css">
   <![CDATA[
    .fil0 {fill:none}
    .fil1 {fill:#173C59}
    .fil2 {fill:#FFCD00;fill-rule:nonzero}
   ]]>
  </style>
 </defs>
 <g id="Layer_x0020_1">
  <metadata id="CorelCorpID_0Corel-Layer"/>
  <rect class="fil0" x="1250" y="1250" width="7500" height="7500"/>
  <circle class="fil1" cx="5000" cy="5000" r="3100"/>
  <g id="CF_diamond.eps">
   <path class="fil2" d="M4960 3454c46,-7 96,-3 137,19 20,11 39,33 30,56 -10,25 -36,37 -60,45 -46,13 -96,13 -142,-2 -18,-7 -37,-17 -48,-34 -10,-14 -8,-34 3,-46 20,-24 51,-33 80,-38zm-305 150c50,-9 105,-7 149,20 20,11 36,36 26,59 -13,30 -48,43 -78,51 -52,11 -111,10 -158,-18 -20,-12 -37,-38 -24,-61 16,-31 52,-44 85,-51zm602 -2c50,-7 104,-2 148,25 20,13 38,39 25,63 -15,28 -48,39 -78,46 -52,9 -110,5 -156,-23 -20,-13 -38,-38 -26,-62 17,-32 55,-43 87,-49zm-907 159c45,-7 94,-4 135,19 20,12 38,36 30,60 -8,27 -34,42 -58,52 -48,19 -102,21 -151,8 -22,-7 -46,-18 -59,-38 -12,-19 -7,-45 9,-60 25,-25 60,-36 94,-41zm610 0c52,-7 109,-3 153,28 20,14 32,42 20,65 -16,27 -48,41 -78,48 -54,12 -115,8 -163,-22 -22,-13 -39,-40 -27,-65 19,-35 59,-48 95,-54zm611 0c52,-8 108,-2 154,26 19,11 36,31 34,54 -2,26 -25,43 -47,52 -49,20 -106,20 -156,4 -24,-7 -48,-20 -63,-40 -13,-16 -14,-42 0,-58 20,-23 49,-33 78,-38zm-1559 169c41,-6 84,-4 122,13 22,10 43,28 45,53 2,26 -18,48 -39,61 -46,28 -102,35 -156,28 -30,-5 -63,-15 -82,-40 -15,-18 -13,-45 2,-62 26,-33 68,-47 108,-53zm630 0c47,-7 98,-3 141,20 19,11 38,29 38,53 2,24 -17,44 -36,56 -46,29 -104,34 -157,25 -32,-7 -68,-19 -86,-49 -12,-19 -7,-45 9,-62 23,-25 58,-37 91,-43zm637 0c52,-8 108,-1 152,28 24,14 42,46 29,73 -19,34 -58,48 -93,54 -55,7 -115,2 -161,-31 -22,-15 -37,-46 -23,-71 20,-34 60,-48 96,-53zm630 0c51,-8 105,-1 151,23 23,13 47,34 48,63 0,24 -19,42 -40,53 -41,21 -90,22 -136,15 -36,-7 -73,-21 -98,-49 -16,-18 -19,-48 -3,-67 19,-22 49,-33 78,-38zm-2267 182c45,-6 92,-6 133,14 23,11 44,32 42,59 -2,28 -23,49 -45,63 -49,30 -110,39 -167,30 -31,-6 -66,-19 -82,-49 -12,-24 -1,-53 18,-70 28,-26 64,-40 101,-47zm656 0c55,-8 117,-5 162,31 21,17 29,49 15,73 -17,29 -50,45 -82,55 -47,13 -98,14 -144,-2 -24,-9 -49,-23 -60,-48 -8,-20 -3,-43 11,-59 25,-29 62,-43 98,-50zm656 0c53,-8 110,-4 156,25 21,13 40,35 37,61 0,28 -23,47 -46,60 -51,26 -112,29 -167,14 -29,-8 -58,-23 -74,-49 -12,-18 -11,-44 2,-61 22,-29 57,-43 92,-50zm656 0c58,-9 120,-2 169,31 20,14 37,36 35,62 -3,30 -29,50 -55,61 -53,21 -114,19 -168,0 -27,-11 -56,-27 -69,-55 -10,-20 -4,-45 11,-61 20,-22 49,-32 77,-38zm656 0c58,-9 120,-2 170,29 25,16 51,43 45,76 -9,34 -45,51 -76,59 -60,12 -126,3 -178,-29 -27,-17 -53,-47 -42,-81 12,-33 49,-47 81,-54zm-3014 195c45,-7 93,-7 134,13 22,12 44,33 42,59 0,30 -23,54 -46,70 -51,34 -115,46 -176,37 -30,-5 -61,-16 -80,-41 -16,-22 -12,-53 4,-73 30,-37 77,-56 122,-65zm682 0c51,-8 107,-6 151,23 22,15 38,42 31,69 -9,36 -43,58 -75,72 -53,21 -114,25 -169,6 -26,-10 -53,-27 -61,-54 -8,-27 6,-55 25,-72 27,-24 63,-38 98,-44zm682 -1c51,-8 106,-3 151,23 26,16 47,45 40,77 -9,33 -40,53 -69,66 -48,19 -102,22 -152,9 -30,-8 -59,-24 -77,-50 -14,-22 -10,-52 6,-72 24,-30 63,-46 101,-53zm682 0c52,-8 109,-2 155,26 24,14 46,38 47,67 -1,26 -19,48 -40,62 -45,27 -100,32 -151,24 -37,-6 -76,-21 -102,-51 -19,-21 -21,-57 -2,-79 22,-29 58,-43 93,-49zm676 1c56,-10 116,-2 166,27 24,14 47,36 51,65 3,28 -16,53 -39,66 -48,28 -108,29 -161,16 -37,-9 -74,-27 -97,-58 -15,-21 -17,-53 0,-74 19,-24 50,-36 80,-42zm682 -1c60,-9 123,1 175,32 25,16 49,38 53,68 3,27 -16,51 -39,63 -41,22 -90,23 -136,16 -41,-8 -83,-24 -114,-55 -19,-19 -32,-48 -19,-74 15,-30 49,-44 80,-50zm-3840 214c46,-10 95,-12 139,4 27,10 54,33 54,63 2,33 -22,59 -46,78 -48,35 -109,50 -169,48 -35,-3 -74,-12 -98,-40 -20,-22 -17,-57 0,-80 27,-40 75,-61 120,-73zm708 0c51,-11 106,-12 153,11 24,12 47,34 48,63 2,31 -20,58 -44,75 -52,38 -121,51 -184,40 -34,-6 -72,-21 -89,-53 -13,-26 -4,-57 13,-77 26,-32 65,-50 103,-59zm708 0c53,-12 112,-11 161,15 26,14 49,40 49,70 -1,34 -26,60 -53,77 -48,28 -105,36 -159,28 -36,-6 -71,-20 -94,-49 -19,-23 -18,-59 0,-83 22,-31 59,-49 96,-58zm708 -1c53,-12 112,-9 161,16 25,12 48,32 56,60 7,24 -2,51 -20,69 -31,32 -78,46 -122,48 -50,3 -103,-7 -143,-39 -24,-19 -40,-52 -28,-82 15,-40 57,-62 96,-72zm713 -1c61,-12 129,-5 181,31 23,16 44,41 44,71 1,27 -17,50 -39,64 -45,29 -101,34 -153,25 -39,-7 -77,-22 -105,-51 -20,-20 -31,-54 -17,-81 17,-34 54,-51 89,-59zm697 2c57,-14 119,-9 172,16 26,13 52,31 66,57 12,22 13,50 -2,71 -20,27 -54,40 -86,46 -63,9 -131,-4 -183,-41 -26,-19 -49,-52 -41,-87 9,-33 42,-53 74,-62zm707 0c60,-15 125,-7 181,20 32,16 64,39 77,75 8,23 1,50 -18,66 -25,22 -60,30 -93,32 -61,2 -123,-15 -172,-52 -24,-19 -46,-48 -41,-81 5,-32 37,-52 66,-60zm-3929 221c43,-5 88,-3 127,17 26,13 48,40 46,70 -2,34 -25,61 -50,80 -47,34 -107,49 -165,47 -41,-2 -86,-13 -112,-48 -20,-27 -13,-67 8,-92 35,-44 92,-66 146,-74zm728 1c49,-7 102,-4 146,22 24,15 45,41 44,71 0,36 -27,66 -56,84 -57,36 -128,45 -193,29 -33,-10 -67,-28 -80,-62 -13,-30 0,-65 21,-87 32,-32 75,-50 118,-57zm734 0c51,-8 105,-3 150,23 28,16 52,43 52,76 2,33 -21,62 -48,80 -45,30 -103,39 -156,33 -42,-6 -85,-21 -111,-55 -20,-25 -23,-62 -5,-89 25,-40 73,-60 118,-68zm734 0c55,-9 116,-2 164,29 28,18 53,48 52,83 -2,38 -33,67 -65,82 -73,32 -163,26 -228,-21 -29,-22 -50,-62 -35,-98 18,-45 67,-67 112,-75zm735 0c62,-10 128,1 180,38 25,17 46,43 49,73 3,26 -11,51 -31,67 -33,27 -76,35 -118,36 -56,-1 -114,-18 -155,-57 -25,-24 -40,-62 -24,-95 18,-37 60,-55 99,-62zm733 0c65,-11 133,3 188,39 27,18 52,45 57,79 4,26 -11,52 -32,67 -29,21 -65,28 -100,29 -60,0 -122,-18 -168,-57 -26,-23 -46,-59 -35,-94 13,-38 54,-56 90,-63zm-3371 246c48,-8 101,-7 145,17 24,13 45,35 50,63 7,32 -10,65 -33,87 -47,46 -114,66 -178,64 -46,-2 -96,-15 -124,-53 -21,-28 -18,-69 2,-97 31,-45 85,-71 138,-81zm766 0c52,-9 108,-5 154,21 28,17 53,45 53,79 2,38 -23,72 -53,92 -58,39 -134,49 -201,30 -33,-10 -66,-29 -83,-60 -17,-30 -11,-68 10,-95 28,-38 74,-58 120,-67zm766 0c61,-11 128,-2 178,36 28,21 47,55 41,90 -5,32 -29,58 -56,75 -51,31 -115,37 -173,24 -41,-10 -81,-30 -103,-67 -19,-28 -17,-67 3,-95 25,-36 68,-55 110,-63zm760 1c59,-12 122,-4 174,26 30,18 56,45 64,79 7,30 -6,62 -29,82 -36,33 -86,44 -134,43 -57,-1 -118,-20 -157,-64 -23,-25 -34,-63 -20,-95 18,-41 61,-63 102,-71zm767 -1c69,-13 145,2 202,45 24,18 45,44 50,74 6,29 -8,59 -30,77 -32,26 -74,35 -114,36 -61,-1 -123,-20 -168,-62 -28,-25 -47,-64 -34,-101 15,-39 55,-61 94,-69zm-2728 267c51,-9 107,-7 154,19 28,16 53,45 56,79 3,41 -22,79 -53,103 -60,46 -141,62 -214,43 -34,-9 -66,-28 -85,-58 -20,-31 -15,-74 6,-104 30,-45 83,-72 136,-82zm805 -2c56,-8 117,-2 165,31 28,19 50,48 52,83 2,35 -17,69 -44,91 -53,44 -127,57 -194,44 -42,-9 -84,-29 -108,-66 -23,-34 -20,-81 5,-113 29,-39 77,-61 124,-70zm792 1c60,-11 126,-2 177,31 30,21 57,51 61,89 4,35 -15,71 -43,92 -41,32 -94,43 -145,40 -57,-3 -116,-25 -152,-72 -25,-32 -29,-80 -6,-114 24,-37 67,-57 108,-66zm811 -2c66,-8 136,7 189,48 27,21 50,52 53,87 3,33 -15,66 -41,85 -43,32 -99,39 -150,33 -59,-8 -117,-34 -153,-82 -24,-33 -28,-81 -3,-114 24,-34 65,-51 105,-57zm-2051 294c57,-11 121,-7 171,24 33,20 58,56 58,96 1,48 -31,91 -70,116 -73,47 -173,55 -249,10 -42,-25 -71,-76 -57,-126 19,-65 84,-106 147,-120zm843 -2c57,-9 120,-3 170,29 37,22 66,62 67,106 0,49 -33,91 -73,113 -78,43 -181,40 -252,-14 -40,-28 -65,-82 -48,-130 19,-58 79,-93 136,-104zm826 2c58,-12 121,-6 173,23 36,18 68,47 83,86 13,34 7,75 -16,104 -33,42 -87,60 -139,62 -71,3 -146,-23 -192,-80 -26,-33 -34,-81 -15,-120 20,-41 63,-65 106,-75zm-1273 319c59,-14 124,-7 176,24 36,22 66,59 70,102 6,50 -21,99 -61,128 -79,61 -201,66 -281,4 -43,-31 -65,-88 -49,-139 20,-64 82,-105 145,-119zm882 -2c70,-14 147,1 202,48 31,26 55,64 55,105 2,49 -28,94 -69,119 -86,52 -206,40 -280,-28 -39,-35 -59,-93 -40,-144 20,-55 76,-89 132,-100zm-441 350c93,-20 206,15 249,105 24,52 13,116 -25,158 -71,81 -200,94 -291,41 -41,-23 -75,-63 -84,-110 -10,-44 3,-91 32,-124 30,-36 73,-60 119,-70z"/>
  </g>
 </g>
</svg>
