<?xml version="1.0" encoding="UTF-8"?>
<!DOCTYPE svg PUBLIC "-//W3C//DTD SVG 1.1//EN" "http://www.w3.org/Graphics/SVG/1.1/DTD/svg11.dtd">
<!-- Creator: CorelDRAW X7 -->
<svg xmlns="http://www.w3.org/2000/svg" xml:space="preserve" width="7.5in" height="7.5in" version="1.1" style="shape-rendering:geometricPrecision; text-rendering:geometricPrecision; image-rendering:optimizeQuality; fill-rule:evenodd; clip-rule:evenodd"
viewBox="0 0 7500 7500"
 xmlns:xlink="http://www.w3.org/1999/xlink">
 <defs>
  <style type="text/css">
   <![CDATA[
    .fil0 {fill:none}
    .fil2 {fill:#518DC9;fill-rule:nonzero}
    .fil3 {fill:#FEFEFE;fill-rule:nonzero}
    .fil1 {fill:url(#id0)}
   ]]>
  </style>
  <radialGradient id="id0" gradientUnits="userSpaceOnUse" gradientTransform="matrix(1 -0 1.27E-006 1 0 0)" cx="3750" cy="3750" r="2304.17" fx="3750" fy="3750">
   <stop offset="0" style="stop-opacity:1; stop-color:#3E495D"/>
   <stop offset="1" style="stop-opacity:1; stop-color:#2E3644"/>
  </radialGradient>
 </defs>
 <g id="Layer_x0020_1">
  <metadata id="CorelCorpID_0Corel-Layer"/>
  <rect class="fil0" width="7500" height="7500"/>
  <circle class="fil1" cx="3750" cy="3750" r="3100"/>
  <g id="_2228477997920">
   <path class="fil2" d="M3646 1720c69,0 139,0 209,0 0,21 0,42 0,63 -1,628 0,1257 0,1885 -70,0 -140,0 -209,0 -1,-614 0,-1229 -1,-1843 0,-35 0,-70 1,-105zm-363 386c70,0 140,0 209,0 0,22 0,43 1,64 -1,370 0,741 -1,1111 -69,1 -139,1 -209,0 0,-389 1,-778 0,-1168l0 -7zm725 0c70,0 139,0 209,0 0,392 0,784 0,1175 -4,1 -11,1 -15,1 -65,0 -130,0 -194,0 0,-368 0,-735 0,-1103 0,-24 0,-48 0,-73z"/>
   <path class="fil3" d="M1715 4219c87,-65 196,-86 302,-96 131,-11 264,-5 396,-6 42,1 84,2 126,3 -3,17 -6,34 -8,51 -14,74 -26,147 -39,220 -132,-2 -264,-4 -396,-2 -45,3 -94,4 -133,29 -35,21 -52,61 -59,100 -14,78 -7,157 -9,235 1,66 -2,136 26,198 16,39 54,63 95,69 80,14 163,5 244,9 3,-57 0,-114 2,-171 -56,-2 -113,0 -169,-1 16,-81 29,-163 48,-244 143,2 286,0 430,1 0,164 0,328 0,493 -1,51 -6,110 -45,149 -46,42 -113,44 -172,44 -125,-2 -250,4 -374,-7 -91,-10 -185,-29 -262,-83 -60,-41 -101,-105 -122,-174 -37,-120 -31,-248 -31,-372 -1,-94 4,-191 34,-281 22,-65 62,-123 116,-164zm985 -102c190,0 380,-2 571,1 131,5 275,28 369,128 94,102 103,250 106,383 -2,155 12,321 -62,463 -58,111 -180,170 -299,188 -97,16 -195,11 -292,12 -131,0 -262,0 -393,0 -1,-374 0,-748 0,-1121 -1,-18 -1,-36 0,-54zm316 306c1,199 -1,399 1,598 87,-3 176,7 262,-8 50,-8 98,-41 114,-90 27,-78 18,-162 20,-243 -1,-71 4,-146 -27,-211 -22,-46 -73,-71 -122,-77 -82,-10 -164,-3 -246,-5 -2,11 -3,24 -2,36zm1086 -306c2,0 8,-1 10,-1 126,1 251,1 376,0 120,337 239,675 357,1013 104,-153 204,-308 308,-460 -123,-185 -248,-368 -371,-552 104,0 209,-2 313,0 2,2 5,4 6,5 121,183 245,364 367,545 -139,209 -282,415 -421,624 -161,2 -322,1 -484,0 -23,-86 -53,-171 -78,-257 -131,0 -262,0 -393,0 -27,86 -53,172 -80,258 -107,0 -215,0 -322,0 67,-191 134,-382 200,-573 71,-200 141,-401 212,-602zm61 671c83,1 166,0 248,0 -40,-132 -83,-264 -123,-397 -44,132 -83,265 -125,397zm1372 -671c117,-1 234,-1 352,0 -117,171 -233,343 -351,514 -54,-80 -109,-160 -164,-241 54,-91 109,-182 163,-273zm-171 844c58,-86 117,-171 175,-256 133,195 264,391 397,587 -124,0 -247,0 -370,0 -67,-110 -134,-221 -202,-331z"/>
  </g>
 </g>
</svg>
