<?xml version="1.0" encoding="UTF-8"?>
<!DOCTYPE svg PUBLIC "-//W3C//DTD SVG 1.1//EN" "http://www.w3.org/Graphics/SVG/1.1/DTD/svg11.dtd">
<!-- Creator: CorelDRAW X7 -->
<svg xmlns="http://www.w3.org/2000/svg" xml:space="preserve" width="7.5in" height="7.5in" version="1.1" style="shape-rendering:geometricPrecision; text-rendering:geometricPrecision; image-rendering:optimizeQuality; fill-rule:evenodd; clip-rule:evenodd"
viewBox="0 0 7500 7500"
 xmlns:xlink="http://www.w3.org/1999/xlink">
 <defs>
  <style type="text/css">
   <![CDATA[
    .fil0 {fill:none}
    .fil1 {fill:#4C4F54;fill-rule:nonzero}
    .fil3 {fill:#FDBA12;fill-rule:nonzero}
    .fil2 {fill:white;fill-rule:nonzero}
   ]]>
  </style>
 </defs>
 <g id="Layer_x0020_1">
  <metadata id="CorelCorpID_0Corel-Layer"/>
  <rect class="fil0" width="7500" height="7500"/>
  <g id="_2433828270160">
   <path class="fil1" d="M6757 4500c-414,1661 -2096,2671 -3757,2257 -1661,-414 -2671,-2096 -2257,-3757 414,-1660 2096,-2672 3757,-2257 1660,414 2672,2096 2257,3757z"/>
   <path class="fil2" d="M3532 3804c1,251 0,503 1,754 106,-3 212,3 318,2 123,-4 253,-16 357,-88 73,-50 115,-135 124,-221 16,-111 -9,-234 -90,-315 -85,-88 -209,-120 -327,-128 -127,-7 -255,-3 -383,-4zm0 -891c0,222 0,444 0,665 107,1 213,0 319,1 81,-2 164,-16 235,-56 77,-42 131,-119 146,-204 14,-83 10,-172 -29,-248 -41,-78 -125,-121 -208,-139 -152,-35 -308,-14 -463,-19zm-565 -242l931 0c175,8 362,45 493,170 137,127 179,331 138,509 -32,145 -138,268 -273,329 139,47 264,141 331,273 74,147 76,326 14,477 -53,129 -165,227 -292,281 -136,60 -285,77 -431,84l-911 0c1,-79 0,-158 1,-236 89,-1 178,0 267,0 0,-550 1,-1099 0,-1648 -89,0 -178,0 -267,0 -1,-80 0,-159 -1,-239z"/>
   <path class="fil2" d="M2253 2886c91,-71 183,-140 274,-209 0,300 0,601 0,902 100,0 200,-1 300,0 0,75 0,150 -1,225 -99,0 -199,0 -299,0 0,171 0,341 0,512 0,53 0,108 20,158 13,34 43,62 78,72 66,20 135,9 202,12 0,78 0,157 0,236l-182 0c-101,-7 -211,-25 -285,-102 -87,-87 -105,-217 -106,-334 0,-185 0,-369 0,-554 -77,0 -154,0 -230,0 -2,-75 0,-149 -2,-224 77,-3 155,-1 232,-1 0,-231 0,-462 -1,-693z"/>
   <path class="fil2" d="M5583 2885c90,-70 182,-139 273,-209 1,301 -1,602 1,903 99,-1 198,0 297,-1l0 226c-99,0 -198,0 -297,0 -1,188 -1,377 -1,565 1,62 15,137 76,168 69,32 148,17 222,20l0 237 -186 0c-96,-7 -199,-25 -272,-94 -81,-76 -108,-191 -112,-298 -1,-199 0,-399 -1,-598 -78,0 -155,0 -233,0 -1,-75 0,-150 -1,-225 78,-2 156,0 234,-1 0,-231 1,-462 0,-693z"/>
   <path class="fil2" d="M1346 3576c171,-5 342,6 512,3 0,326 0,652 0,978 77,1 154,0 231,1 0,78 0,157 0,236l-743 0 0 -237c79,1 158,1 237,0 -1,-251 0,-502 -1,-753 -77,0 -155,0 -233,0 2,-65 -3,-130 4,-194 0,-10 -2,-20 -7,-29l0 -5z"/>
   <path class="fil2" d="M4681 3579c170,-1 340,0 509,0 1,326 0,652 1,978 77,1 155,0 233,1 0,78 0,157 0,236l-743 0c0,-79 0,-158 0,-236 78,-1 155,-1 233,0 1,-251 0,-503 1,-754 -78,0 -156,0 -234,0 0,-75 0,-150 0,-225z"/>
   <path class="fil3" d="M1617 2836c97,-35 214,31 234,132 28,105 -56,221 -165,223 -94,11 -185,-65 -193,-158 -13,-85 42,-172 124,-197z"/>
   <path class="fil3" d="M4949 2837c90,-33 198,19 229,110 29,77 -1,171 -71,216 -82,56 -208,29 -257,-59 -61,-94 -9,-236 99,-267z"/>
  </g>
 </g>
</svg>
