<?xml version="1.0" encoding="UTF-8"?>
<!DOCTYPE svg PUBLIC "-//W3C//DTD SVG 1.1//EN" "http://www.w3.org/Graphics/SVG/1.1/DTD/svg11.dtd">
<!-- Creator: CorelDRAW X7 -->
<svg xmlns="http://www.w3.org/2000/svg" xml:space="preserve" width="10in" height="10in" version="1.1" style="shape-rendering:geometricPrecision; text-rendering:geometricPrecision; image-rendering:optimizeQuality; fill-rule:evenodd; clip-rule:evenodd"
viewBox="0 0 10000 10000"
 xmlns:xlink="http://www.w3.org/1999/xlink">
 <defs>
  <style type="text/css">
   <![CDATA[
    .fil0 {fill:none}
    .fil2 {fill:#F47116}
    .fil1 {fill:#F8F8F8}
    .fil3 {fill:#196BBF;fill-rule:nonzero}
   ]]>
  </style>
 </defs>
 <g id="Layer_x0020_1">
  <metadata id="CorelCorpID_0Corel-Layer"/>
  <rect class="fil0" x="1283" y="1217" width="7500" height="7500"/>
  <circle class="fil1" cx="5000" cy="5000" r="3100"/>
  <g id="_2228489818192">
   <path class="fil2" d="M5000 2641c134,0 265,15 392,41l-102 379c-93,-19 -191,-28 -290,-28 -99,0 -196,9 -290,28l-102 -379c127,-26 258,-41 392,-41zm580 92c254,82 484,217 678,392l-277 277c-145,-128 -316,-227 -503,-291l102 -378zm816 530c175,193 310,424 392,678l-378 101c-64,-187 -164,-357 -291,-502l277 -277zm442 866c27,126 41,257 41,392 0,134 -14,265 -41,392l-378 -102c18,-94 28,-191 28,-290 0,-100 -10,-197 -28,-291l378 -101zm-50 972c-82,254 -217,484 -392,678l-277 -277c127,-145 227,-316 290,-503l379 102zm-530 816c-194,174 -424,309 -678,392l-102 -379c187,-63 358,-163 503,-291l277 278zm-866 442c-127,27 -258,41 -392,41 -134,0 -266,-14 -392,-41l102 -379c93,19 191,29 290,29 99,0 196,-10 290,-29l102 379zm-972 -50c-254,-82 -484,-218 -678,-392l277 -278c145,128 316,228 503,291l-102 379zm-816 -530c-175,-194 -310,-424 -392,-678l378 -102c64,187 164,358 291,503l-277 277zm-442 -866c-27,-127 -41,-258 -41,-392 0,-135 14,-266 41,-392l378 101c-18,94 -28,191 -28,291 0,99 10,196 28,290l-378 102zm50 -972c82,-254 217,-485 392,-679l277 278c-127,145 -227,315 -290,502l-379 -101zm530 -816c194,-175 424,-310 678,-392l102 378c-187,64 -358,163 -503,291l-277 -277z"/>
   <path class="fil3" d="M4851 3225c310,-36 633,42 889,221 347,236 570,647 563,1068 10,413 -201,820 -535,1060 -159,115 -343,195 -536,228 -108,23 -218,19 -326,17 -394,-26 -768,-246 -986,-574 -134,-198 -210,-434 -221,-672 -9,-240 49,-483 167,-692 200,-358 577,-610 985,-656zm55 388c-1,79 -6,157 -4,235 -153,0 -306,0 -459,1 1,84 0,168 1,252 60,0 119,0 179,0 1,279 0,558 1,838 -60,0 -120,0 -180,0 -1,84 0,167 0,251 153,2 306,1 458,1 10,78 -5,157 4,235 64,0 128,0 192,0 1,-78 0,-157 2,-235 136,-6 276,-54 369,-158 89,-95 110,-239 75,-361 -26,-94 -102,-165 -188,-205 51,-43 100,-92 124,-156 42,-109 31,-245 -53,-332 -83,-91 -209,-124 -327,-132 -2,-78 -1,-156 -1,-234 -64,0 -128,0 -193,0zm11 488c73,3 151,-11 221,17 90,38 77,180 1,226 -67,39 -148,26 -222,29 1,-91 1,-182 0,-272zm1 525c88,0 181,-10 264,27 102,47 96,217 -4,262 -82,37 -174,21 -260,24 0,-105 0,-209 0,-313zm-910 1661c202,108 420,190 647,228 386,68 791,20 1151,-136 61,-24 117,-59 178,-82 -47,72 -107,134 -161,201 -205,242 -411,484 -632,712 -54,50 -105,106 -169,143 -27,16 -53,-8 -74,-22 -62,-50 -119,-105 -174,-162 -268,-283 -521,-580 -766,-882z"/>
  </g>
 </g>
</svg>
