<?xml version="1.0" encoding="UTF-8"?>
<!DOCTYPE svg PUBLIC "-//W3C//DTD SVG 1.1//EN" "http://www.w3.org/Graphics/SVG/1.1/DTD/svg11.dtd">
<!-- Creator: CorelDRAW X7 -->
<svg xmlns="http://www.w3.org/2000/svg" xml:space="preserve" width="10in" height="10in" version="1.1" style="shape-rendering:geometricPrecision; text-rendering:geometricPrecision; image-rendering:optimizeQuality; fill-rule:evenodd; clip-rule:evenodd"
viewBox="0 0 10000 10000"
 xmlns:xlink="http://www.w3.org/1999/xlink">
 <defs>
  <style type="text/css">
   <![CDATA[
    .fil0 {fill:none}
    .fil1 {fill:#EDEDED}
    .fil2 {fill:#423024;fill-rule:nonzero}
    .fil7 {fill:#453E35;fill-rule:nonzero}
    .fil6 {fill:#666666;fill-rule:nonzero}
    .fil4 {fill:#FCDD4F;fill-rule:nonzero}
    .fil3 {fill:#FDC900;fill-rule:nonzero}
    .fil5 {fill:white;fill-rule:nonzero}
   ]]>
  </style>
 </defs>
 <g id="Layer_x0020_1">
  <metadata id="CorelCorpID_0Corel-Layer"/>
  <rect class="fil0" x="1250" y="1250" width="7500" height="7500"/>
  <circle class="fil1" cx="5000" cy="5000" r="3100"/>
  <g id="_2228477102048">
   <path class="fil2" d="M6975 4261c34,-28 78,-43 123,-41 49,3 92,45 100,93 3,22 6,48 -11,66 -17,21 -45,29 -70,22 13,-9 30,-15 38,-30 21,-41 -15,-107 -65,-94 -55,13 -71,88 -43,131 17,34 56,49 93,52 59,5 118,1 177,1 63,1 126,11 186,30 37,13 64,47 71,85 12,60 9,125 -13,182 -18,47 -55,87 -103,105 -56,23 -119,19 -178,10 -3,2 -7,7 -11,11 0,0 0,0 -1,0 -4,4 -9,7 -14,9 9,3 18,8 26,18l7 9 -12 2c-1,1 -2,1 -3,1 3,2 5,4 8,7l9 10 -14 2c-6,1 -10,3 -14,5 -3,1 -7,2 -10,3 4,3 7,6 8,12l4 14 -7 -3 11 8 -17 4c-13,2 -24,-2 -34,-7l1 11c0,7 0,14 0,21 3,187 0,375 2,562 -68,1 -135,0 -202,0 0,-164 0,-328 0,-493 -2,-38 2,-83 -28,-113 -39,-39 -98,-43 -150,-45 9,-10 17,-20 25,-30 -53,-11 -48,-92 -3,-110 24,-8 61,5 60,34 2,29 -30,47 -54,39 -10,-3 -17,-10 -12,-21 4,-8 13,-15 20,-19 -3,5 -9,16 -6,21 4,5 15,4 20,1 11,-7 14,-26 1,-33 -17,-10 -37,0 -48,16 -7,12 -10,31 -1,43 5,8 14,12 24,11 64,-5 114,-83 85,-142 -24,-43 -89,-38 -119,-6 -13,12 -9,31 -6,46 10,47 -14,102 -58,122 -121,40 -130,-119 -47,-121 30,-4 60,41 14,51 10,-8 13,-21 1,-24 -20,-6 -43,19 -32,40 20,21 52,-1 64,-21 19,-31 14,-87 -27,-98 -35,-8 -72,1 -103,17 -29,15 -51,39 -77,57 0,260 0,519 0,778 -64,1 -129,1 -194,0 1,-294 0,-587 1,-881 64,0 129,0 193,0 0,19 0,38 0,57 5,-5 12,-8 14,-15 16,-40 33,-81 67,-110 24,-19 50,-36 78,-50 -1,14 -2,27 -4,41 37,-26 81,-40 126,-47 4,13 4,27 4,41 21,-12 43,-22 68,-23 -42,-66 -44,-151 -17,-222 15,-41 45,-74 79,-102zm203 591c7,14 14,27 22,41 21,1 51,1 69,-20 -19,3 -36,1 -51,-6 14,1 29,-8 42,-9 -26,-25 -53,-13 -82,-6zm37 117l0 0 0 1 0 0 0 0 0 0 1 0 0 0 0 0 0 0 1 1 0 0 0 0 0 0 1 0 0 0 0 0 0 0 1 0 0 0 0 1 0 0 1 0 0 0 0 0 0 0 1 0 0 0 0 1 0 0 1 0 0 0 0 0 0 0 1 0 0 0 0 0 0 0 1 1 0 0 0 0 0 0 1 0 0 0 1 0 0 0 0 0 0 0 1 1 0 0 0 0 0 0 1 0 0 0 0 0 0 0 1 0 0 0 0 1 0 0 1 0 0 0 0 0 1 0 0 0 0 0 1 0 0 0 0 1 0 0 1 0 0 0 0 0 0 0 1 0 0 0 1 0 0 0 0 0 0 0 1 0 1 0 0 1 1 0 0 0 1 0 0 0 1 0 0 0 1 0 0 0 1 0 0 0 1 0 0 0 1 0 0 0 1 0 0 0 1 0 0 0 1 0 0 0 1 0 1 -1c-7,-5 -14,-10 -19,-17 6,4 15,1 22,4l0 -1 0 0 0 0 0 0 -1 -1 0 0 0 0 0 0 0 -1 0 0 0 0 0 0 -1 -1 0 0 0 0 0 0 0 -1 0 0 -1 0 0 0 0 0 0 0 0 0 0 -1 0 0 -1 0 0 0 0 0 0 -1 0 0 -1 0 0 0 0 0 0 0 -1 0 0 -1 0 0 0 0 0 0 -1 0 0 0 0 0 0 0 0 0 -1 -1 0 0 -1 0 0 0 0 0 0 0 -1 0 0 0 0 0 0 -1 -1 0 0 0 0 0 -1 0 0 0 0 0 -1 0 0 0 0 -1 -1 0 0 0 0 0 0 0 -1 0 0 0 -1 0 0 0 0 0 0 0 -1 -1 0 0 -1 0 0 0 0 0 -1 0 0 0 0 0 -1 0 0 0 0 0 -1 -1 0 0 -1 0 0 0 0 0 -1 0 0 0 0 0 -1 0 0 0 -1 -1 0 0 0 0 0 0 -1 0 0 0 -1 0 0 0 -1 0 0 0 0 -1 -1 0 0 0 0 0 -1 0 0 0 0 0 -1 0 0 0 -1 -1 0 0 0 0 -1 0 0 0 -1 0 0 0 -1 -1 0 0 0 0c-2,-1 -3,-1 -4,-2 0,8 1,16 2,24zm15 -54l1 0 0 0 0 -1 1 0 0 0 0 0 1 0 0 0 0 0 1 0 0 0 0 0 1 0 0 0 1 0 0 0 1 0 0 0 0 0 1 0 0 0 0 0 1 0 0 0 0 0 1 0 0 0 1 0 1 0 0 0 0 0 1 0 0 0 0 0 1 1 0 0 1 0 0 0 0 0 1 0 0 0 1 0 1 0 0 0 1 0 0 0 0 0 1 0 0 0 1 0 0 0 0 0 1 0 0 0 0 0 1 0 1 0 0 0 1 0 0 0 1 0 0 0 0 0 1 0 0 0 1 0 0 0 0 0 1 0 0 0 1 0 0 0 1 0 0 0 1 0 0 0 0 0 1 1 0 0 0 0 1 0 0 0 0 0 1 0 1 0 0 0 0 0 0 0 1 0 0 0 1 0 0 0 0 0 1 0 0 0 0 0 0 0 1 0 0 -1 1 0 0 0 0 0 1 0 0 0 0 0 0 0 1 0 0 0 0 0 0 0 0 0 1 0c0,0 -1,-1 -1,-1l0 0c0,0 0,-1 -1,-1l0 0 0 0c0,0 0,-1 -1,-1l0 0 -1 -1 0 0c0,-1 -1,-1 -1,-2l-1 0c0,0 0,0 0,0l-1 -1c0,0 0,0 0,0l-1 0c0,-1 0,-1 0,-1l0 0c-1,0 -1,0 -1,-1l0 0 -1 0 0 0 0 0 -1 0 0 0c0,-1 0,-1 0,-1l-1 0 0 0 0 0 -1 0 0 -1 0 0 -1 0 0 0 -1 -1 0 0 -1 0 0 0 -1 0 0 -1 -1 0 0 0 0 0 -1 0 0 0 -1 -1 0 0 -1 0 -1 0 0 0 -1 0 0 -1 -1 0 0 0 0 0 -1 0 0 0 0 0 -1 0 0 0 -1 0 -1 0 0 0 -1 0 0 0 0 -1 -1 0 0 0 -1 0 0 0 0 0 -1 0 0 0 -1 0c-13,-1 -27,2 -39,2 3,11 7,23 10,34 3,1 5,2 7,3l0 0 2 0 0 1 1 0 1 0 0 0c1,1 2,1 3,1l0 0 1 0 1 1 0 0 1 0 1 0 0 0 1 1 0 0 1 0 1 0 0 0 1 0 1 0 0 1 1 0 0 0 1 0 0 0 1 0 0 0 0 0 1 0 0 0 1 0 0 0 1 0 0 0 0 0 1 0 0 0 1 0 0 0 1 0 0 0 0 0 1 0 0 0 1 0 0 0 0 0 1 0 0 0 1 0 0 0 0 0 0 0 1 0 0 0 0 0 1 0 0 0 1 0 0 -1 0 0 1 0 0 0 0 0 1 0 0 0 0 0 0 0 1 -1 0 0 0 0 1 0 0 0 0 0 1 0 0 0 0 -1 1 0 0 0 0 0 1 0 0 0 0 0 0 0 1 -1 0 0 1 0 0 0 0 0 0 0 1 0 1 -1 0 0 0 0 0 0 1 0 0 0 1 -1 0 0 0 0 1 0 0 0 1 0 0 0 0 0 1 0 0 -1 0 0 1 0 0 0 1 0 0 0 1 0 0 0 1 0 0 -1 0 0 1 0 0 0 1 0 0 0 1 0c0,0 -1,-1 -1,-1l0 0 0 0 -1 -1 0 0 -1 -1 0 0 -1 -1 0 0 -1 -1 0 0 -1 0 0 -1 -1 0 0 0 -1 -1 0 0 0 0 -1 -1 0 0 -1 0 0 -1 -1 0 0 0 -1 0 0 0 -1 -1 0 0c0,0 0,0 0,0l0 0 -1 0 -1 0 0 -1 0 0 -1 0 0 0 -1 0 0 0 -1 0 0 -1 -1 0 0 0 -1 0 0 0 0 0 -1 0c0,0 -1,0 -1,0l0 0c-1,0 -1,0 -2,0l0 0c-2,0 -4,0 -5,0l-1 0c-1,0 -2,0 -3,0l0 0c-4,0 -8,-1 -11,-2l0 0 0 -1 0 0c0,0 0,0 -1,0l0 0 0 -1 0 0 -1 0 0 0c0,0 0,0 0,-1 -1,0 -2,-1 -2,-3 1,0 2,0 4,0zm-240 -476c17,41 41,79 68,114 50,75 125,132 209,166 53,15 112,35 165,12 42,-15 79,-51 80,-98 3,-38 -26,-69 -55,-89 -57,-35 -126,-36 -190,-39 -76,4 -159,8 -225,-36 -40,-27 -47,-82 -34,-125 9,-32 34,-54 58,-74 -66,24 -100,104 -76,169zm-282 231c31,-10 63,-16 95,-16 18,-17 28,-40 29,-65 -20,8 -38,21 -56,33 10,-14 22,-26 34,-38 -41,17 -82,44 -102,86zm127 -20c29,2 58,6 87,12 15,-13 27,-29 36,-47 -16,5 -32,11 -50,12 16,-8 32,-16 45,-27 -43,0 -91,13 -118,50zm-174 -11c5,-7 15,-22 20,-30 -38,25 -68,63 -79,107 25,-12 48,-25 74,-35 4,-29 26,-49 36,-76 -18,9 -34,23 -51,34zm299 0c-10,7 -17,17 -25,25 18,5 37,11 54,18 23,-9 46,-20 63,-38 0,-2 0,-6 0,-8 -18,9 -38,10 -58,9 18,-7 35,-13 52,-21 -29,2 -58,5 -86,15zm56 57c17,10 35,22 51,35 25,-14 52,-28 81,-32 -14,-2 -28,-3 -41,-6 10,-2 20,-3 30,-8 -40,-7 -87,-17 -121,11zm75 52c13,14 28,28 42,41 26,-7 55,-15 73,-38 -21,1 -41,2 -61,-1 17,-3 33,-6 50,-13 -35,-11 -73,-8 -104,11zm48 50c12,15 23,30 33,46 27,-7 55,-15 77,-33 -26,5 -53,7 -79,3 22,-5 43,-10 65,-16 -8,-3 -17,-6 -25,-8 -24,-9 -47,6 -71,8zm-142 11c-28,13 -42,41 -62,63 15,-1 29,-3 43,0 15,4 32,22 46,13 7,-5 7,-9 4,-17 -4,-11 -18,-13 -31,-10 1,-4 2,-11 3,-15 11,0 24,-2 34,5 24,14 29,45 47,65 15,16 44,10 55,-8 11,-19 7,-43 -6,-60 -29,-41 -87,-56 -133,-36zm-127 105c25,-2 51,0 75,9 -10,-32 58,-26 43,4 -8,8 -17,2 -25,-2 11,14 28,22 43,32 39,27 43,-14 26,-26 -9,-4 -15,3 -14,10 2,12 9,10 12,5 2,-4 0,-9 -1,-11 31,27 -53,42 -16,-27 -40,-33 -103,-23 -143,6zm-3378 -590c47,-14 101,-2 135,34 39,43 41,112 12,161 -46,69 -160,71 -211,7 -30,-40 -33,-97 -12,-142 15,-30 44,-51 76,-60zm2660 0c47,-14 101,-2 136,33 40,44 42,118 9,167 -47,61 -150,64 -203,9 -33,-37 -38,-94 -21,-140 12,-34 45,-59 79,-69zm-3733 2c72,0 145,0 217,0 0,162 1,323 0,485 38,-61 104,-96 170,-118 105,-34 221,-23 322,19 105,43 185,138 218,246 29,94 33,196 13,293 -22,107 -84,208 -176,268 -77,49 -168,71 -258,72 -64,3 -128,-11 -184,-40 -42,-23 -77,-58 -104,-98 -6,40 -11,80 -16,119 -67,0 -135,0 -202,0 0,-415 0,-830 0,-1246zm422 557c-89,20 -163,94 -183,183 -14,65 -8,135 23,195 32,62 94,107 162,123 67,16 139,4 197,-32 100,-62 134,-195 102,-304 -18,-61 -60,-115 -117,-145 -56,-29 -123,-35 -184,-20zm999 -414c73,-8 145,-17 218,-23 -1,83 -1,166 0,249 80,-1 160,0 241,0 0,63 0,125 0,188 -81,0 -163,0 -244,0 1,126 0,252 1,378 0,34 7,72 33,96 28,27 69,33 106,28 38,-4 71,-25 104,-42 23,58 61,109 108,150 12,8 -6,12 -12,16 -59,29 -118,62 -185,70 -82,9 -170,6 -241,-38 -58,-35 -99,-95 -115,-160 -11,-43 -14,-88 -14,-133 0,-121 0,-243 0,-365 -54,0 -109,0 -163,0 0,-63 0,-125 0,-188 54,0 109,0 163,0 0,-76 0,-151 0,-226zm798 215c94,-22 195,-25 288,6 54,18 103,51 146,88 -52,45 -94,100 -119,163 -42,-35 -92,-61 -147,-65 -66,-7 -136,9 -188,52 -48,38 -78,96 -87,157 -11,70 -1,146 40,205 32,49 85,81 142,94 82,16 174,2 240,-53 28,63 69,121 123,164 -73,60 -163,97 -256,103 -115,8 -236,-15 -332,-81 -95,-65 -155,-173 -171,-287 -20,-132 -3,-277 77,-387 58,-82 148,-136 244,-159zm-1216 5c72,0 144,-1 216,0 0,295 0,589 0,883 -72,0 -144,0 -216,0 0,-294 1,-588 0,-883zm2662 0c72,0 144,0 216,0 0,294 0,589 0,883 -72,0 -144,1 -216,0 0,-294 0,-589 0,-883z"/>
   <path class="fil3" d="M5386 4629c83,-21 171,-16 255,-1 -6,4 -13,7 -19,11 -20,6 -39,14 -55,26 45,7 92,12 135,29 140,53 253,178 286,325 20,96 14,198 -26,288 -40,88 -109,162 -191,213 -89,51 -198,71 -299,48 -184,-37 -335,-201 -358,-387 -14,-106 6,-218 64,-308 38,-60 91,-110 149,-152 -84,46 -153,120 -195,206 -56,119 -56,263 -4,384 52,108 145,199 259,241 27,12 41,45 73,49 92,16 188,8 277,-21 -91,49 -197,61 -298,49 -214,-25 -399,-205 -431,-418 -17,-113 -2,-234 55,-334 69,-120 186,-216 323,-248zm145 205c-5,25 -12,50 -18,76 -30,-11 -62,-18 -92,-27 -5,16 -10,31 -14,46 21,8 55,14 51,43 -13,62 -30,122 -44,183 -2,12 -8,22 -17,29 -14,-3 -27,-7 -41,-10 -6,17 -13,33 -21,49 29,9 59,17 88,27 -4,24 -11,47 -16,72 15,3 29,7 44,11 6,-24 14,-48 17,-72 12,3 24,6 37,9 -3,25 -11,49 -16,73 16,4 32,7 49,10 4,-24 10,-48 12,-73 45,4 96,11 133,-21 48,-36 45,-120 -9,-149 49,-12 69,-79 42,-119 -18,-28 -48,-43 -77,-55 5,-23 11,-46 16,-70 -15,-4 -29,-8 -44,-12 -6,24 -11,48 -17,72 -12,-4 -24,-7 -36,-10 5,-24 11,-47 16,-70 -15,-4 -29,-8 -43,-12zm12 139c29,1 60,9 81,29 21,18 17,59 -10,67 -31,6 -62,-1 -91,-10 7,-29 16,-57 20,-86zm-32 132c35,10 72,18 100,43 20,16 18,55 -8,64 -39,12 -79,4 -117,-5 8,-34 18,-68 25,-102z"/>
   <path class="fil4" d="M5622 4639c8,-1 17,-2 24,-8 108,30 202,98 270,186 140,178 137,454 -10,627 -46,56 -103,105 -169,136 -89,29 -185,37 -277,21 -32,-4 -46,-37 -73,-49 -114,-42 -207,-133 -259,-241 -52,-121 -52,-265 4,-384 42,-86 111,-160 195,-206 -58,42 -111,92 -149,152 -58,90 -78,202 -64,308 23,186 174,350 358,387 101,23 210,3 299,-48 82,-51 151,-125 191,-213 40,-90 46,-192 26,-288 -33,-147 -146,-272 -286,-325 -43,-17 -90,-22 -135,-29 16,-12 35,-20 55,-26z"/>
   <path class="fil5" d="M5531 4834c14,4 28,8 43,12 -5,23 -11,46 -16,70 12,3 24,6 36,10 6,-24 11,-48 17,-72 15,4 29,8 44,12 -5,24 -11,47 -16,70 29,12 59,27 77,55 27,40 7,107 -42,119 54,29 57,113 9,149 -37,32 -88,25 -133,21 -2,25 -8,49 -12,73 -17,-3 -33,-6 -49,-10 5,-24 13,-48 16,-73 -13,-3 -25,-6 -37,-9 -3,24 -11,48 -17,72 -15,-4 -29,-8 -44,-11 5,-25 12,-48 16,-72 -29,-10 -59,-18 -88,-27 8,-16 15,-32 21,-49 14,3 27,7 41,10 9,-7 15,-17 17,-29 14,-61 31,-121 44,-183 4,-29 -30,-35 -51,-43 4,-15 9,-30 14,-46 30,9 62,16 92,27 6,-26 13,-51 18,-76zm12 139c-4,29 -13,57 -20,86 29,9 60,16 91,10 27,-8 31,-49 10,-67 -21,-20 -52,-28 -81,-29zm-32 132c-7,34 -17,68 -25,102 38,9 78,17 117,5 26,-9 28,-48 8,-64 -28,-25 -65,-33 -100,-43z"/>
   <path class="fil6" d="M5433 5761c75,-12 151,-8 226,-7 22,2 42,8 64,8 -40,6 -80,1 -119,9 -38,1 -76,3 -113,-4 -20,-3 -40,3 -58,-6z"/>
   <path class="fil7" d="M5278 5762c50,-9 100,-16 150,-16 88,-6 176,-6 263,0 51,0 101,8 150,16 -47,6 -95,13 -143,16 -140,4 -281,6 -420,-16zm155 -1c18,9 38,3 58,6 37,7 75,5 113,4 39,-8 79,-3 119,-9 -22,0 -42,-6 -64,-8 -75,-1 -151,-5 -226,7z"/>
  </g>
 </g>
</svg>
