<?xml version="1.0" encoding="UTF-8"?>
<!DOCTYPE svg PUBLIC "-//W3C//DTD SVG 1.1//EN" "http://www.w3.org/Graphics/SVG/1.1/DTD/svg11.dtd">
<!-- Creator: CorelDRAW X7 -->
<svg xmlns="http://www.w3.org/2000/svg" xml:space="preserve" width="10in" height="10in" version="1.1" style="shape-rendering:geometricPrecision; text-rendering:geometricPrecision; image-rendering:optimizeQuality; fill-rule:evenodd; clip-rule:evenodd"
viewBox="0 0 10000 10000"
 xmlns:xlink="http://www.w3.org/1999/xlink">
 <defs>
  <style type="text/css">
   <![CDATA[
    .fil0 {fill:none}
    .fil1 {fill:whitesmoke}
    .fil4 {fill:#D93727;fill-rule:nonzero}
    .fil2 {fill:#F47221;fill-rule:nonzero}
    .fil3 {fill:url(#id0);fill-rule:nonzero}
   ]]>
  </style>
  <linearGradient id="id0" gradientUnits="userSpaceOnUse" x1="5528.88" y1="4432.92" x2="5975.45" y2="4997.25">
   <stop offset="0" style="stop-opacity:1; stop-color:#D93727"/>
   <stop offset="1" style="stop-opacity:1; stop-color:#F47221"/>
  </linearGradient>
 </defs>
 <g id="Layer_x0020_1">
  <metadata id="CorelCorpID_0Corel-Layer"/>
  <rect class="fil0" x="1250" y="1250" width="7500" height="7500"/>
  <g id="_2228484314416">
   <circle class="fil1" cx="5000" cy="5000" r="3100"/>
   <g>
    <path class="fil2" d="M4203 3994c81,-303 166,-604 246,-906 204,0 407,-1 610,0 79,-1 160,19 221,72 96,78 130,213 100,331 -44,168 -88,336 -138,503 -85,288 -159,581 -240,871 -16,55 -30,111 -42,167 -41,156 -86,310 -125,465 -20,77 -27,158 -16,237 17,81 96,141 178,135 115,10 224,-56 289,-148 92,-126 140,-280 156,-433 5,-71 -7,-149 -55,-204 104,-122 237,-214 346,-332 71,-78 157,-140 233,-213 120,-100 225,-216 340,-322 189,200 249,487 237,754 -16,320 -104,636 -241,925 -174,365 -468,676 -836,847 -337,162 -727,212 -1093,132 -212,-48 -422,-153 -548,-336 -136,-196 -153,-448 -119,-677 26,-171 78,-335 123,-501 29,-109 59,-218 89,-326 96,-347 191,-694 285,-1041z"/>
    <path class="fil3" d="M5416 5437c12,-49 21,-99 26,-149 5,-71 -7,-149 -55,-204 -40,-40 -97,-50 -151,-51 -93,-1 -184,0 -276,-1 12,-56 26,-112 42,-167 81,-290 155,-583 240,-871 163,-2 325,-1 487,-1 211,0 429,68 577,224 189,200 249,487 237,754 -8,158 -33,314 -73,466l-1054 0z"/>
    <path class="fil4" d="M3657 4633c62,-213 121,-428 185,-641 120,2 240,0 361,2 -94,347 -189,694 -285,1041 -81,-12 -162,-45 -213,-112 -65,-80 -73,-192 -48,-290z"/>
   </g>
  </g>
 </g>
</svg>
