<?xml version="1.0" encoding="UTF-8"?>
<!DOCTYPE svg PUBLIC "-//W3C//DTD SVG 1.1//EN" "http://www.w3.org/Graphics/SVG/1.1/DTD/svg11.dtd">
<!-- Creator: CorelDRAW X7 -->
<svg xmlns="http://www.w3.org/2000/svg" xml:space="preserve" width="10in" height="10in" version="1.1" style="shape-rendering:geometricPrecision; text-rendering:geometricPrecision; image-rendering:optimizeQuality; fill-rule:evenodd; clip-rule:evenodd"
viewBox="0 0 10000 10000"
 xmlns:xlink="http://www.w3.org/1999/xlink">
 <defs>
  <style type="text/css">
   <![CDATA[
    .fil0 {fill:none}
    .fil2 {fill:white;fill-rule:nonzero}
    .fil1 {fill:url(#id0)}
   ]]>
  </style>
  <radialGradient id="id0" gradientUnits="userSpaceOnUse" gradientTransform="matrix(0.997419 -2.54001E-006 2.54001E-006 0.997419 13 13)" cx="5000" cy="5000" r="3133.33" fx="5000" fy="5000">
   <stop offset="0" style="stop-opacity:1; stop-color:#27458A"/>
   <stop offset="1" style="stop-opacity:1; stop-color:#141A3F"/>
  </radialGradient>
 </defs>
 <g id="Layer_x0020_1">
  <metadata id="CorelCorpID_0Corel-Layer"/>
  <rect class="fil0" x="1250" y="1250" width="7500" height="7500"/>
  <circle class="fil1" cx="5000" cy="5000" r="3100"/>
  <g id="DQmboL9S6ioUiyEuJr7uGFN9MSpirwhaU5B7ae31U9y5iEU.eps">
   <path class="fil2" d="M5439 4428l48 0c82,4 164,24 236,64 68,37 126,94 163,161 42,75 60,162 60,247 0,186 0,371 0,557 1,44 -44,84 -88,75 -36,-6 -62,-40 -62,-76 0,-185 0,-371 0,-556 0,-76 -24,-153 -74,-211 -51,-60 -125,-97 -202,-108 -90,-12 -185,3 -261,55 -64,42 -109,111 -125,186 -12,51 -7,105 -8,157 0,153 0,306 0,459 0,27 -8,56 -28,75 -16,17 -42,24 -65,17 -34,-9 -58,-43 -57,-78 0,-165 0,-331 0,-496 0,-40 -1,-81 4,-121 6,-64 24,-128 56,-185 29,-52 71,-94 117,-130 81,-63 185,-88 286,-92zm1333 24c103,-6 209,14 302,62 121,62 215,173 259,302 55,160 39,346 -50,490 -39,63 -89,118 -149,161 -139,100 -325,126 -489,79 -136,-38 -255,-133 -322,-258 -95,-171 -93,-392 5,-562 67,-118 179,-210 310,-249 43,-14 88,-22 134,-25zm-10 143c-102,11 -199,65 -262,146 -58,72 -88,165 -89,257 -2,75 14,151 50,217 37,71 95,130 166,167 95,50 209,58 311,25 72,-23 137,-68 184,-127 93,-118 113,-284 63,-424 -34,-93 -103,-174 -192,-219 -71,-37 -152,-50 -231,-42zm-4073 -137c47,-16 98,29 96,76 0,183 0,365 0,547 0,81 27,163 82,224 62,71 158,107 251,106 81,0 161,0 242,0 39,1 74,38 71,78 0,39 -32,75 -72,75 -80,1 -161,1 -241,1 -119,-2 -240,-37 -332,-115 -53,-43 -94,-101 -118,-165 -24,-62 -33,-129 -33,-195 0,-185 0,-370 0,-556 -1,-33 22,-65 54,-76zm998 90c-2,-41 34,-82 76,-81 41,0 76,40 74,81 0,181 0,362 0,543 0,53 11,107 34,155 27,57 73,106 129,136 71,38 156,48 236,36 76,-12 150,-49 199,-109 48,-58 72,-134 72,-209 0,-185 0,-371 0,-557 0,-37 29,-73 67,-76 40,-5 80,31 79,72 0,180 0,361 0,542 1,53 -3,106 -15,157 -19,81 -59,157 -120,214 -75,69 -173,108 -274,120l-137 0c-49,-5 -97,-17 -142,-35 -91,-35 -171,-100 -219,-185 -43,-77 -59,-165 -59,-253 0,-183 0,-367 0,-551z"/>
  </g>
 </g>
</svg>
