<?xml version="1.0" encoding="UTF-8"?>
<!DOCTYPE svg PUBLIC "-//W3C//DTD SVG 1.1//EN" "http://www.w3.org/Graphics/SVG/1.1/DTD/svg11.dtd">
<!-- Creator: CorelDRAW X7 -->
<svg xmlns="http://www.w3.org/2000/svg" xml:space="preserve" width="7.5in" height="7.5in" version="1.1" style="shape-rendering:geometricPrecision; text-rendering:geometricPrecision; image-rendering:optimizeQuality; fill-rule:evenodd; clip-rule:evenodd"
viewBox="0 0 7500 7500"
 xmlns:xlink="http://www.w3.org/1999/xlink">
 <defs>
  <style type="text/css">
   <![CDATA[
    .fil0 {fill:none}
    .fil1 {fill:whitesmoke}
    .fil226 {fill:#3F00FD;fill-rule:nonzero}
    .fil2 {fill:#3F01FD;fill-rule:nonzero}
    .fil3 {fill:#3F02FD;fill-rule:nonzero}
    .fil4 {fill:#4003FD;fill-rule:nonzero}
    .fil5 {fill:#4004FD;fill-rule:nonzero}
    .fil6 {fill:#4005FD;fill-rule:nonzero}
    .fil7 {fill:#4006FD;fill-rule:nonzero}
    .fil8 {fill:#4107FD;fill-rule:nonzero}
    .fil9 {fill:#4108FD;fill-rule:nonzero}
    .fil10 {fill:#4109FD;fill-rule:nonzero}
    .fil11 {fill:#420AFD;fill-rule:nonzero}
    .fil12 {fill:#420BFD;fill-rule:nonzero}
    .fil13 {fill:#420CFD;fill-rule:nonzero}
    .fil14 {fill:#420DFD;fill-rule:nonzero}
    .fil15 {fill:#420EFD;fill-rule:nonzero}
    .fil16 {fill:#430FFD;fill-rule:nonzero}
    .fil17 {fill:#4310FD;fill-rule:nonzero}
    .fil18 {fill:#4311FD;fill-rule:nonzero}
    .fil19 {fill:#4312FD;fill-rule:nonzero}
    .fil20 {fill:#4413FD;fill-rule:nonzero}
    .fil21 {fill:#4414FD;fill-rule:nonzero}
    .fil22 {fill:#4415FD;fill-rule:nonzero}
    .fil23 {fill:#4516FD;fill-rule:nonzero}
    .fil24 {fill:#4517FD;fill-rule:nonzero}
    .fil25 {fill:#4518FD;fill-rule:nonzero}
    .fil26 {fill:#4519FD;fill-rule:nonzero}
    .fil27 {fill:#451AFD;fill-rule:nonzero}
    .fil28 {fill:#461BFD;fill-rule:nonzero}
    .fil29 {fill:#461CFD;fill-rule:nonzero}
    .fil30 {fill:#461DFD;fill-rule:nonzero}
    .fil31 {fill:#461EFD;fill-rule:nonzero}
    .fil32 {fill:#471FFD;fill-rule:nonzero}
    .fil33 {fill:#4720FD;fill-rule:nonzero}
    .fil34 {fill:#4721FD;fill-rule:nonzero}
    .fil35 {fill:#4722FD;fill-rule:nonzero}
    .fil36 {fill:#4823FD;fill-rule:nonzero}
    .fil37 {fill:#4824FD;fill-rule:nonzero}
    .fil38 {fill:#4825FD;fill-rule:nonzero}
    .fil39 {fill:#4826FD;fill-rule:nonzero}
    .fil40 {fill:#4926FD;fill-rule:nonzero}
    .fil41 {fill:#4927FD;fill-rule:nonzero}
    .fil42 {fill:#4928FD;fill-rule:nonzero}
    .fil43 {fill:#4929FD;fill-rule:nonzero}
    .fil44 {fill:#492AFD;fill-rule:nonzero}
    .fil45 {fill:#4A2BFD;fill-rule:nonzero}
    .fil46 {fill:#4A2CFD;fill-rule:nonzero}
    .fil47 {fill:#4A2DFD;fill-rule:nonzero}
    .fil48 {fill:#4A2EFD;fill-rule:nonzero}
    .fil49 {fill:#4B2FFD;fill-rule:nonzero}
    .fil50 {fill:#4B30FD;fill-rule:nonzero}
    .fil51 {fill:#4B31FD;fill-rule:nonzero}
    .fil52 {fill:#4B32FD;fill-rule:nonzero}
    .fil53 {fill:#4C33FD;fill-rule:nonzero}
    .fil54 {fill:#4C34FD;fill-rule:nonzero}
    .fil55 {fill:#4C35FD;fill-rule:nonzero}
    .fil56 {fill:#4C36FD;fill-rule:nonzero}
    .fil57 {fill:#4D37FE;fill-rule:nonzero}
    .fil58 {fill:#4D38FE;fill-rule:nonzero}
    .fil59 {fill:#4D39FE;fill-rule:nonzero}
    .fil60 {fill:#4D3AFE;fill-rule:nonzero}
    .fil61 {fill:#4E3BFE;fill-rule:nonzero}
    .fil62 {fill:#4E3CFE;fill-rule:nonzero}
    .fil63 {fill:#4E3DFE;fill-rule:nonzero}
    .fil64 {fill:#4E3EFE;fill-rule:nonzero}
    .fil65 {fill:#4F3FFE;fill-rule:nonzero}
    .fil66 {fill:#4F40FE;fill-rule:nonzero}
    .fil67 {fill:#4F41FE;fill-rule:nonzero}
    .fil68 {fill:#4F42FE;fill-rule:nonzero}
    .fil69 {fill:#5043FE;fill-rule:nonzero}
    .fil70 {fill:#5044FE;fill-rule:nonzero}
    .fil71 {fill:#5045FE;fill-rule:nonzero}
    .fil72 {fill:#5046FE;fill-rule:nonzero}
    .fil73 {fill:#5147FE;fill-rule:nonzero}
    .fil74 {fill:#5148FE;fill-rule:nonzero}
    .fil75 {fill:#5149FE;fill-rule:nonzero}
    .fil76 {fill:#514AFE;fill-rule:nonzero}
    .fil77 {fill:#524BFE;fill-rule:nonzero}
    .fil78 {fill:#524CFE;fill-rule:nonzero}
    .fil79 {fill:#524DFE;fill-rule:nonzero}
    .fil80 {fill:#524EFE;fill-rule:nonzero}
    .fil81 {fill:#524FFE;fill-rule:nonzero}
    .fil82 {fill:#5350FE;fill-rule:nonzero}
    .fil83 {fill:#5351FE;fill-rule:nonzero}
    .fil84 {fill:#5352FE;fill-rule:nonzero}
    .fil85 {fill:#5453FE;fill-rule:nonzero}
    .fil86 {fill:#5454FE;fill-rule:nonzero}
    .fil87 {fill:#5455FE;fill-rule:nonzero}
    .fil88 {fill:#5456FE;fill-rule:nonzero}
    .fil89 {fill:#5557FE;fill-rule:nonzero}
    .fil90 {fill:#5558FE;fill-rule:nonzero}
    .fil91 {fill:#5559FE;fill-rule:nonzero}
    .fil92 {fill:#555AFE;fill-rule:nonzero}
    .fil93 {fill:#555BFE;fill-rule:nonzero}
    .fil94 {fill:#565BFE;fill-rule:nonzero}
    .fil95 {fill:#565CFE;fill-rule:nonzero}
    .fil96 {fill:#565DFE;fill-rule:nonzero}
    .fil97 {fill:#565EFE;fill-rule:nonzero}
    .fil98 {fill:#575FFE;fill-rule:nonzero}
    .fil99 {fill:#5760FE;fill-rule:nonzero}
    .fil100 {fill:#5761FE;fill-rule:nonzero}
    .fil101 {fill:#5762FE;fill-rule:nonzero}
    .fil102 {fill:#5863FE;fill-rule:nonzero}
    .fil103 {fill:#5864FE;fill-rule:nonzero}
    .fil104 {fill:#5865FE;fill-rule:nonzero}
    .fil105 {fill:#5866FE;fill-rule:nonzero}
    .fil106 {fill:#5867FE;fill-rule:nonzero}
    .fil107 {fill:#5967FE;fill-rule:nonzero}
    .fil108 {fill:#5968FE;fill-rule:nonzero}
    .fil109 {fill:#5969FE;fill-rule:nonzero}
    .fil110 {fill:#596AFE;fill-rule:nonzero}
    .fil111 {fill:#596BFE;fill-rule:nonzero}
    .fil112 {fill:#5A6CFE;fill-rule:nonzero}
    .fil113 {fill:#5A6DFE;fill-rule:nonzero}
    .fil114 {fill:#5A6EFE;fill-rule:nonzero}
    .fil115 {fill:#5B6FFE;fill-rule:nonzero}
    .fil116 {fill:#5B70FE;fill-rule:nonzero}
    .fil117 {fill:#5B71FE;fill-rule:nonzero}
    .fil118 {fill:#5B72FE;fill-rule:nonzero}
    .fil119 {fill:#5B73FE;fill-rule:nonzero}
    .fil120 {fill:#5C73FE;fill-rule:nonzero}
    .fil121 {fill:#5C74FE;fill-rule:nonzero}
    .fil122 {fill:#5C75FE;fill-rule:nonzero}
    .fil123 {fill:#5C76FE;fill-rule:nonzero}
    .fil124 {fill:#5C77FE;fill-rule:nonzero}
    .fil125 {fill:#5D78FE;fill-rule:nonzero}
    .fil126 {fill:#5D79FE;fill-rule:nonzero}
    .fil127 {fill:#5D7AFE;fill-rule:nonzero}
    .fil128 {fill:#5D7BFE;fill-rule:nonzero}
    .fil129 {fill:#5E7CFE;fill-rule:nonzero}
    .fil130 {fill:#5E7DFE;fill-rule:nonzero}
    .fil131 {fill:#5E7EFE;fill-rule:nonzero}
    .fil132 {fill:#5E7FFE;fill-rule:nonzero}
    .fil133 {fill:#5F7FFE;fill-rule:nonzero}
    .fil134 {fill:#5F80FE;fill-rule:nonzero}
    .fil135 {fill:#5F81FE;fill-rule:nonzero}
    .fil136 {fill:#5F82FE;fill-rule:nonzero}
    .fil137 {fill:#5F83FE;fill-rule:nonzero}
    .fil138 {fill:#6084FE;fill-rule:nonzero}
    .fil139 {fill:#6085FE;fill-rule:nonzero}
    .fil140 {fill:#6086FE;fill-rule:nonzero}
    .fil141 {fill:#6087FE;fill-rule:nonzero}
    .fil142 {fill:#6188FE;fill-rule:nonzero}
    .fil143 {fill:#6189FE;fill-rule:nonzero}
    .fil144 {fill:#618AFE;fill-rule:nonzero}
    .fil145 {fill:#628BFE;fill-rule:nonzero}
    .fil146 {fill:#628CFE;fill-rule:nonzero}
    .fil147 {fill:#628DFE;fill-rule:nonzero}
    .fil148 {fill:#628EFE;fill-rule:nonzero}
    .fil149 {fill:#628FFE;fill-rule:nonzero}
    .fil150 {fill:#6390FE;fill-rule:nonzero}
    .fil151 {fill:#6391FE;fill-rule:nonzero}
    .fil152 {fill:#6392FE;fill-rule:nonzero}
    .fil153 {fill:#6393FE;fill-rule:nonzero}
    .fil154 {fill:#6494FE;fill-rule:nonzero}
    .fil155 {fill:#6495FE;fill-rule:nonzero}
    .fil156 {fill:#6496FE;fill-rule:nonzero}
    .fil157 {fill:#6497FE;fill-rule:nonzero}
    .fil158 {fill:#6598FE;fill-rule:nonzero}
    .fil159 {fill:#6599FE;fill-rule:nonzero}
    .fil160 {fill:#659AFE;fill-rule:nonzero}
    .fil161 {fill:#659BFE;fill-rule:nonzero}
    .fil162 {fill:#669CFE;fill-rule:nonzero}
    .fil163 {fill:#669DFE;fill-rule:nonzero}
    .fil164 {fill:#669EFE;fill-rule:nonzero}
    .fil165 {fill:#669FFE;fill-rule:nonzero}
    .fil166 {fill:#67A0FE;fill-rule:nonzero}
    .fil167 {fill:#67A1FE;fill-rule:nonzero}
    .fil168 {fill:#67A2FE;fill-rule:nonzero}
    .fil169 {fill:#67A3FE;fill-rule:nonzero}
    .fil170 {fill:#68A4FF;fill-rule:nonzero}
    .fil171 {fill:#68A5FF;fill-rule:nonzero}
    .fil172 {fill:#68A6FF;fill-rule:nonzero}
    .fil173 {fill:#68A7FF;fill-rule:nonzero}
    .fil174 {fill:#69A8FF;fill-rule:nonzero}
    .fil175 {fill:#69A9FF;fill-rule:nonzero}
    .fil176 {fill:#69AAFF;fill-rule:nonzero}
    .fil177 {fill:#69ABFF;fill-rule:nonzero}
    .fil178 {fill:#6AACFF;fill-rule:nonzero}
    .fil179 {fill:#6AADFF;fill-rule:nonzero}
    .fil180 {fill:#6AAEFF;fill-rule:nonzero}
    .fil181 {fill:#6AAFFF;fill-rule:nonzero}
    .fil182 {fill:#6BB0FF;fill-rule:nonzero}
    .fil183 {fill:#6BB1FF;fill-rule:nonzero}
    .fil184 {fill:#6BB2FF;fill-rule:nonzero}
    .fil185 {fill:#6BB3FF;fill-rule:nonzero}
    .fil186 {fill:#6BB4FF;fill-rule:nonzero}
    .fil187 {fill:#6CB4FF;fill-rule:nonzero}
    .fil188 {fill:#6CB5FF;fill-rule:nonzero}
    .fil189 {fill:#6CB6FF;fill-rule:nonzero}
    .fil190 {fill:#6CB7FF;fill-rule:nonzero}
    .fil191 {fill:#6DB8FF;fill-rule:nonzero}
    .fil192 {fill:#6DB9FF;fill-rule:nonzero}
    .fil193 {fill:#6DBAFF;fill-rule:nonzero}
    .fil194 {fill:#6DBBFF;fill-rule:nonzero}
    .fil195 {fill:#6EBCFF;fill-rule:nonzero}
    .fil196 {fill:#6EBDFF;fill-rule:nonzero}
    .fil197 {fill:#6EBEFF;fill-rule:nonzero}
    .fil198 {fill:#6EBFFF;fill-rule:nonzero}
    .fil199 {fill:#6FC0FF;fill-rule:nonzero}
    .fil200 {fill:#6FC1FF;fill-rule:nonzero}
    .fil201 {fill:#6FC2FF;fill-rule:nonzero}
    .fil202 {fill:#6FC3FF;fill-rule:nonzero}
    .fil203 {fill:#6FC4FF;fill-rule:nonzero}
    .fil204 {fill:#70C5FF;fill-rule:nonzero}
    .fil205 {fill:#70C6FF;fill-rule:nonzero}
    .fil206 {fill:#70C7FF;fill-rule:nonzero}
    .fil207 {fill:#71C8FF;fill-rule:nonzero}
    .fil208 {fill:#71C9FF;fill-rule:nonzero}
    .fil209 {fill:#71CAFF;fill-rule:nonzero}
    .fil210 {fill:#71CBFF;fill-rule:nonzero}
    .fil211 {fill:#72CCFF;fill-rule:nonzero}
    .fil212 {fill:#72CDFF;fill-rule:nonzero}
    .fil213 {fill:#72CEFF;fill-rule:nonzero}
    .fil214 {fill:#72CFFF;fill-rule:nonzero}
    .fil215 {fill:#72D0FF;fill-rule:nonzero}
    .fil216 {fill:#73D1FF;fill-rule:nonzero}
    .fil217 {fill:#73D2FF;fill-rule:nonzero}
    .fil218 {fill:#73D3FF;fill-rule:nonzero}
    .fil219 {fill:#74D4FF;fill-rule:nonzero}
    .fil220 {fill:#74D5FF;fill-rule:nonzero}
    .fil221 {fill:#74D6FF;fill-rule:nonzero}
    .fil222 {fill:#74D7FF;fill-rule:nonzero}
    .fil223 {fill:#75D8FF;fill-rule:nonzero}
    .fil224 {fill:#75D9FF;fill-rule:nonzero}
    .fil225 {fill:#75DAFF;fill-rule:nonzero}
   ]]>
  </style>
    <clipPath id="id0" style="clip-rule:nonzero">
     <path d="M3428 1592c516,-95 1062,11 1511,280 443,263 789,689 951,1180 -90,114 -173,234 -260,351 -87,115 -169,234 -257,349 173,233 342,468 517,700 -240,732 -896,1306 -1653,1448 -522,104 -1082,13 -1540,-259 -459,-266 -814,-704 -979,-1208 -4,-14 -13,-43 -17,-57 -87,-292 -113,-602 -73,-904 2,-16 6,-50 8,-67 82,-519 360,-1004 766,-1337 211,-178 457,-311 718,-400 101,-32 204,-58 308,-76zm-156 1019c-332,154 -592,460 -683,815l-3 0c-6,27 -12,53 -17,80 -57,285 -12,589 128,844 19,31 37,63 56,94l2 0c248,387 722,610 1178,560 377,-30 719,-257 931,-564l2 0c168,-230 337,-459 506,-688 -80,-111 -163,-220 -242,-332l-5 0c-191,-258 -360,-548 -637,-726 -353,-239 -833,-264 -1216,-83z"/>
    </clipPath>
 </defs>
 <g id="Layer_x0020_1">
  <metadata id="CorelCorpID_0Corel-Layer"/>
  <rect class="fil0" width="7500" height="7500"/>
  <circle class="fil1" cx="3750" cy="3750" r="3100"/>
  <g>
   <g style="clip-path:url(#id0)">
    <polygon class="fil2" points="3771,3749 6927,3835 6923,3950 "/>
    <polygon id="1" class="fil3" points="3771,3749 6924,3931 6918,4027 "/>
    <polygon id="2" class="fil4" points="3771,3749 6919,4008 6911,4103 "/>
    <polygon id="3" class="fil4" points="3771,3749 6913,4084 6903,4179 "/>
    <polygon id="4" class="fil5" points="3771,3749 6905,4160 6892,4255 "/>
    <polygon id="5" class="fil6" points="3771,3749 6895,4236 6880,4330 "/>
    <polygon id="6" class="fil7" points="3771,3749 6883,4312 6865,4406 "/>
    <polygon id="7" class="fil8" points="3771,3749 6869,4387 6849,4480 "/>
    <polygon id="8" class="fil9" points="3771,3749 6853,4462 6831,4555 "/>
    <polygon id="9" class="fil10" points="3771,3749 6835,4536 6811,4629 "/>
    <polygon id="10" class="fil10" points="3771,3749 6816,4610 6789,4702 "/>
    <polygon id="11" class="fil11" points="3771,3749 6795,4683 6766,4775 "/>
    <polygon id="12" class="fil12" points="3771,3749 6772,4756 6740,4847 "/>
    <polygon id="13" class="fil13" points="3771,3749 6747,4829 6713,4918 "/>
    <polygon id="14" class="fil14" points="3771,3749 6720,4900 6684,4989 "/>
    <polygon id="15" class="fil15" points="3771,3749 6691,4971 6654,5059 "/>
    <polygon id="16" class="fil16" points="3771,3749 6661,5041 6621,5128 "/>
    <polygon id="17" class="fil16" points="3771,3749 6629,5111 6587,5197 "/>
    <polygon id="18" class="fil17" points="3771,3749 6595,5179 6551,5264 "/>
    <polygon id="19" class="fil18" points="3771,3749 6560,5247 6514,5331 "/>
    <polygon id="20" class="fil19" points="3771,3749 6523,5314 6475,5396 "/>
    <polygon id="21" class="fil20" points="3771,3749 6484,5380 6434,5461 "/>
    <polygon id="22" class="fil21" points="3771,3749 6444,5445 6391,5525 "/>
    <polygon id="23" class="fil22" points="3771,3749 6402,5509 6347,5587 "/>
    <polygon id="24" class="fil22" points="3771,3749 6358,5571 6302,5649 "/>
    <polygon id="25" class="fil23" points="3771,3749 6313,5633 6255,5709 "/>
    <polygon id="26" class="fil24" points="3771,3749 6266,5694 6206,5768 "/>
    <polygon id="27" class="fil25" points="3771,3749 6218,5753 6156,5826 "/>
    <polygon id="28" class="fil26" points="3771,3749 6169,5811 6105,5883 "/>
    <polygon id="29" class="fil27" points="3771,3749 6118,5868 6052,5938 "/>
    <polygon id="30" class="fil28" points="3771,3749 6065,5924 5998,5992 "/>
    <polygon id="31" class="fil28" points="3771,3749 6011,5978 5942,6045 "/>
    <polygon id="32" class="fil29" points="3771,3749 5956,6031 5885,6096 "/>
    <polygon id="33" class="fil30" points="3771,3749 5899,6083 5827,6146 "/>
    <polygon id="34" class="fil31" points="3771,3749 5842,6133 5768,6194 "/>
    <polygon id="35" class="fil32" points="3771,3749 5782,6182 5707,6241 "/>
    <polygon id="36" class="fil33" points="3771,3749 5722,6230 5645,6287 "/>
    <polygon id="37" class="fil33" points="3771,3749 5661,6275 5582,6331 "/>
    <polygon id="38" class="fil34" points="3771,3749 5598,6320 5518,6373 "/>
    <polygon id="39" class="fil35" points="3771,3749 5534,6363 5453,6414 "/>
    <polygon id="40" class="fil36" points="3771,3749 5470,6404 5387,6453 "/>
    <polygon id="41" class="fil37" points="3771,3749 5404,6443 5320,6491 "/>
    <polygon id="42" class="fil38" points="3771,3749 5337,6481 5252,6527 "/>
    <polygon id="43" class="fil39" points="3771,3749 5269,6518 5184,6561 "/>
    <polygon id="44" class="fil40" points="3771,3749 5201,6553 5114,6594 "/>
    <polygon id="45" class="fil41" points="3771,3749 5131,6586 5043,6625 "/>
    <polygon id="46" class="fil42" points="3771,3749 5061,6617 4972,6654 "/>
    <polygon id="47" class="fil43" points="3771,3749 4990,6646 4900,6681 "/>
    <polygon id="48" class="fil44" points="3771,3749 4918,6674 4827,6707 "/>
    <polygon id="49" class="fil45" points="3771,3749 4846,6700 4754,6731 "/>
    <polygon id="50" class="fil46" points="3771,3749 4772,6725 4680,6753 "/>
    <polygon id="51" class="fil46" points="3771,3749 4699,6747 4606,6773 "/>
    <polygon id="52" class="fil47" points="3771,3749 4624,6768 4531,6791 "/>
    <polygon id="53" class="fil48" points="3771,3749 4550,6787 4455,6808 "/>
    <polygon id="54" class="fil49" points="3771,3749 4474,6804 4380,6823 "/>
    <polygon id="55" class="fil50" points="3771,3749 4399,6819 4303,6835 "/>
    <polygon id="56" class="fil51" points="3771,3749 4322,6832 4227,6847 "/>
    <polygon id="57" class="fil52" points="3771,3749 4246,6844 4150,6856 "/>
    <polygon id="58" class="fil52" points="3771,3749 4169,6853 4073,6863 "/>
    <polygon id="59" class="fil53" points="3771,3749 4092,6861 3996,6868 "/>
    <polygon id="60" class="fil54" points="3771,3749 4015,6867 3919,6872 "/>
    <polygon id="61" class="fil55" points="3771,3749 3938,6871 3841,6874 "/>
    <polygon id="62" class="fil56" points="3771,3749 3861,6873 3764,6873 "/>
    <polygon id="63" class="fil57" points="3771,3749 3783,6873 3686,6871 "/>
    <polygon id="64" class="fil58" points="3771,3749 3706,6872 3609,6867 "/>
    <polygon id="65" class="fil58" points="3771,3749 3628,6868 3532,6861 "/>
    <polygon id="66" class="fil59" points="3771,3749 3551,6863 3454,6854 "/>
    <polygon id="67" class="fil60" points="3771,3749 3474,6855 3377,6844 "/>
    <polygon id="68" class="fil61" points="3771,3749 3397,6846 3301,6833 "/>
    <polygon id="69" class="fil62" points="3771,3749 3320,6835 3224,6819 "/>
    <polygon id="70" class="fil63" points="3771,3749 3243,6822 3148,6804 "/>
    <polygon id="71" class="fil64" points="3771,3749 3167,6808 3072,6787 "/>
    <polygon id="72" class="fil64" points="3771,3749 3091,6791 2997,6768 "/>
    <polygon id="73" class="fil65" points="3771,3749 3016,6773 2922,6747 "/>
    <polygon id="74" class="fil66" points="3771,3749 2941,6753 2848,6725 "/>
    <polygon id="75" class="fil67" points="3771,3749 2866,6731 2774,6701 "/>
    <polygon id="76" class="fil68" points="3771,3749 2792,6707 2701,6675 "/>
    <polygon id="77" class="fil69" points="3771,3749 2719,6681 2628,6647 "/>
    <polygon id="78" class="fil70" points="3771,3749 2646,6654 2556,6617 "/>
    <polygon id="79" class="fil70" points="3771,3749 2574,6625 2485,6586 "/>
    <polygon id="80" class="fil71" points="3771,3749 2503,6594 2415,6553 "/>
    <polygon id="81" class="fil72" points="3771,3749 2433,6561 2345,6518 "/>
    <polygon id="82" class="fil73" points="3771,3749 2363,6527 2277,6482 "/>
    <polygon id="83" class="fil74" points="3771,3749 2294,6491 2209,6444 "/>
    <polygon id="84" class="fil75" points="3771,3749 2226,6453 2142,6404 "/>
    <polygon id="85" class="fil76" points="3771,3749 2159,6414 2076,6363 "/>
    <polygon id="86" class="fil76" points="3771,3749 2093,6373 2011,6320 "/>
    <polygon id="87" class="fil77" points="3771,3749 2028,6331 1948,6276 "/>
    <polygon id="88" class="fil78" points="3771,3749 1964,6287 1885,6230 "/>
    <polygon id="89" class="fil79" points="3771,3749 1901,6242 1823,6183 "/>
    <polygon id="90" class="fil80" points="3771,3749 1839,6195 1763,6134 "/>
    <polygon id="91" class="fil81" points="3771,3749 1778,6146 1704,6084 "/>
    <polygon id="92" class="fil82" points="3771,3749 1719,6096 1646,6032 "/>
    <polygon id="93" class="fil82" points="3771,3749 1660,6045 1589,5979 "/>
    <polygon id="94" class="fil83" points="3771,3749 1604,5992 1534,5925 "/>
    <polygon id="95" class="fil84" points="3771,3749 1548,5938 1480,5869 "/>
    <polygon id="96" class="fil85" points="3771,3749 1494,5883 1427,5812 "/>
    <polygon id="97" class="fil86" points="3771,3749 1441,5826 1376,5754 "/>
    <polygon id="98" class="fil87" points="3771,3749 1389,5768 1326,5694 "/>
    <polygon id="99" class="fil87" points="3771,3749 1339,5709 1278,5634 "/>
    <polygon id="100" class="fil88" points="3771,3749 1290,5649 1231,5572 "/>
    <polygon id="101" class="fil89" points="3771,3749 1243,5587 1186,5509 "/>
    <polygon id="102" class="fil90" points="3771,3749 1198,5525 1143,5445 "/>
    <polygon id="103" class="fil91" points="3771,3749 1154,5461 1100,5381 "/>
    <polygon id="104" class="fil92" points="3771,3749 1111,5397 1060,5315 "/>
    <polygon id="105" class="fil93" points="3771,3749 1070,5331 1021,5248 "/>
    <polygon id="106" class="fil94" points="3771,3749 1031,5264 984,5180 "/>
    <polygon id="107" class="fil95" points="3771,3749 993,5197 948,5111 "/>
    <polygon id="108" class="fil96" points="3771,3749 957,5129 915,5042 "/>
    <polygon id="109" class="fil97" points="3771,3749 923,5059 882,4972 "/>
    <polygon id="110" class="fil98" points="3771,3749 891,4989 852,4901 "/>
    <polygon id="111" class="fil99" points="3771,3749 860,4919 824,4829 "/>
    <polygon id="112" class="fil100" points="3771,3749 831,4847 797,4757 "/>
    <polygon id="113" class="fil100" points="3771,3749 804,4775 772,4684 "/>
    <polygon id="114" class="fil101" points="3771,3749 778,4702 748,4611 "/>
    <polygon id="115" class="fil102" points="3771,3749 754,4629 727,4537 "/>
    <polygon id="116" class="fil103" points="3771,3749 733,4555 707,4462 "/>
    <polygon id="117" class="fil104" points="3771,3749 712,4481 690,4387 "/>
    <polygon id="118" class="fil105" points="3771,3749 694,4406 674,4312 "/>
    <polygon id="119" class="fil106" points="3771,3749 678,4331 660,4237 "/>
    <polygon id="120" class="fil107" points="3771,3749 663,4256 648,4161 "/>
    <polygon id="121" class="fil108" points="3771,3749 651,4180 638,4085 "/>
    <polygon id="122" class="fil109" points="3771,3749 640,4104 629,4008 "/>
    <polygon id="123" class="fil110" points="3771,3749 631,4027 623,3932 "/>
    <polygon id="124" class="fil111" points="3771,3749 624,3951 618,3855 "/>
    <polygon id="125" class="fil112" points="3771,3749 619,3874 615,3779 "/>
    <polygon id="126" class="fil113" points="3771,3749 616,3798 615,3702 "/>
    <polygon id="127" class="fil113" points="3771,3749 615,3721 616,3625 "/>
    <polygon id="128" class="fil114" points="3771,3749 616,3644 619,3549 "/>
    <polygon id="129" class="fil115" points="3771,3749 618,3568 624,3472 "/>
    <polygon id="130" class="fil116" points="3771,3749 623,3491 631,3396 "/>
    <polygon id="131" class="fil117" points="3771,3749 629,3415 639,3320 "/>
    <polygon id="132" class="fil118" points="3771,3749 637,3339 650,3244 "/>
    <polygon id="133" class="fil119" points="3771,3749 647,3263 662,3169 "/>
    <polygon id="134" class="fil120" points="3771,3749 659,3187 677,3093 "/>
    <polygon id="135" class="fil121" points="3771,3749 673,3112 693,3019 "/>
    <polygon id="136" class="fil122" points="3771,3749 689,3037 711,2944 "/>
    <polygon id="137" class="fil123" points="3771,3749 707,2963 731,2870 "/>
    <polygon id="138" class="fil124" points="3771,3749 726,2889 753,2797 "/>
    <polygon id="139" class="fil125" points="3771,3749 747,2815 776,2724 "/>
    <polygon id="140" class="fil126" points="3771,3749 770,2743 802,2652 "/>
    <polygon id="141" class="fil126" points="3771,3749 795,2670 829,2581 "/>
    <polygon id="142" class="fil127" points="3771,3749 822,2599 858,2510 "/>
    <polygon id="143" class="fil128" points="3771,3749 851,2528 888,2440 "/>
    <polygon id="144" class="fil129" points="3771,3749 881,2458 921,2371 "/>
    <polygon id="145" class="fil130" points="3771,3749 913,2388 955,2302 "/>
    <polygon id="146" class="fil131" points="3771,3749 947,2320 991,2235 "/>
    <polygon id="147" class="fil132" points="3771,3749 982,2252 1028,2168 "/>
    <polygon id="148" class="fil133" points="3771,3749 1019,2185 1067,2103 "/>
    <polygon id="149" class="fil134" points="3771,3749 1058,2119 1108,2038 "/>
    <polygon id="150" class="fil135" points="3771,3749 1098,2054 1151,1974 "/>
    <polygon id="151" class="fil136" points="3771,3749 1140,1990 1195,1912 "/>
    <polygon id="152" class="fil137" points="3771,3749 1184,1928 1240,1850 "/>
    <polygon id="153" class="fil138" points="3771,3749 1229,1866 1287,1790 "/>
    <polygon id="154" class="fil139" points="3771,3749 1276,1805 1336,1731 "/>
    <polygon id="155" class="fil139" points="3771,3749 1324,1746 1386,1673 "/>
    <polygon id="156" class="fil140" points="3771,3749 1373,1688 1437,1616 "/>
    <polygon id="157" class="fil141" points="3771,3749 1424,1631 1490,1561 "/>
    <polygon id="158" class="fil142" points="3771,3749 1477,1575 1544,1507 "/>
    <polygon id="159" class="fil143" points="3771,3749 1531,1521 1600,1454 "/>
    <polygon id="160" class="fil144" points="3771,3749 1586,1467 1657,1403 "/>
    <polygon id="161" class="fil144" points="3771,3749 1643,1416 1715,1353 "/>
    <polygon id="162" class="fil145" points="3771,3749 1700,1366 1774,1305 "/>
    <polygon id="163" class="fil146" points="3771,3749 1760,1317 1835,1258 "/>
    <polygon id="164" class="fil147" points="3771,3749 1820,1269 1897,1212 "/>
    <polygon id="165" class="fil148" points="3771,3749 1881,1223 1960,1168 "/>
    <polygon id="166" class="fil149" points="3771,3749 1944,1179 2024,1126 "/>
    <polygon id="167" class="fil150" points="3771,3749 2008,1136 2089,1085 "/>
    <polygon id="168" class="fil150" points="3771,3749 2072,1095 2155,1046 "/>
    <polygon id="169" class="fil151" points="3771,3749 2138,1055 2222,1008 "/>
    <polygon id="170" class="fil152" points="3771,3749 2205,1017 2290,972 "/>
    <polygon id="171" class="fil153" points="3771,3749 2273,981 2358,938 "/>
    <polygon id="172" class="fil154" points="3771,3749 2341,946 2428,905 "/>
    <polygon id="173" class="fil155" points="3771,3749 2411,913 2499,874 "/>
    <polygon id="174" class="fil156" points="3771,3749 2481,882 2570,845 "/>
    <polygon id="175" class="fil156" points="3771,3749 2552,853 2642,818 "/>
    <polygon id="176" class="fil157" points="3771,3749 2624,825 2715,792 "/>
    <polygon id="177" class="fil158" points="3771,3749 2696,799 2788,768 "/>
    <polygon id="178" class="fil159" points="3771,3749 2770,774 2862,746 "/>
    <polygon id="179" class="fil160" points="3771,3749 2843,752 2936,726 "/>
    <polygon id="180" class="fil161" points="3771,3749 2918,731 3011,708 "/>
    <polygon id="181" class="fil162" points="3771,3749 2992,712 3087,691 "/>
    <polygon id="182" class="fil162" points="3771,3749 3068,695 3162,676 "/>
    <polygon id="183" class="fil163" points="3771,3749 3143,680 3239,663 "/>
    <polygon id="184" class="fil164" points="3771,3749 3220,667 3315,652 "/>
    <polygon id="185" class="fil165" points="3771,3749 3296,655 3392,643 "/>
    <polygon id="186" class="fil166" points="3771,3749 3373,646 3469,636 "/>
    <polygon id="187" class="fil167" points="3771,3749 3450,638 3546,631 "/>
    <polygon id="188" class="fil168" points="3771,3749 3527,632 3623,627 "/>
    <polygon id="189" class="fil168" points="3771,3749 3604,628 3701,625 "/>
    <polygon id="190" class="fil169" points="3771,3749 3682,626 3778,626 "/>
    <polygon id="191" class="fil170" points="3771,3749 3759,626 3856,628 "/>
    <polygon id="192" class="fil171" points="3771,3749 3836,627 3933,632 "/>
    <polygon id="193" class="fil172" points="3771,3749 3914,631 4011,638 "/>
    <polygon id="194" class="fil173" points="3771,3749 3991,636 4088,645 "/>
    <polygon id="195" class="fil174" points="3771,3749 4068,644 4165,655 "/>
    <polygon id="196" class="fil174" points="3771,3749 4145,653 4241,666 "/>
    <polygon id="197" class="fil175" points="3771,3749 4222,664 4318,680 "/>
    <polygon id="198" class="fil176" points="3771,3749 4299,677 4394,695 "/>
    <polygon id="199" class="fil177" points="3771,3749 4375,691 4470,712 "/>
    <polygon id="200" class="fil178" points="3771,3749 4451,708 4545,731 "/>
    <polygon id="201" class="fil179" points="3771,3749 4526,726 4620,751 "/>
    <polygon id="202" class="fil180" points="3771,3749 4601,746 4694,774 "/>
    <polygon id="203" class="fil180" points="3771,3749 4676,768 4768,798 "/>
    <polygon id="204" class="fil181" points="3771,3749 4750,792 4841,824 "/>
    <polygon id="205" class="fil182" points="3771,3749 4823,818 4914,852 "/>
    <polygon id="206" class="fil183" points="3771,3749 4896,845 4986,882 "/>
    <polygon id="207" class="fil184" points="3771,3749 4968,874 5057,913 "/>
    <polygon id="208" class="fil185" points="3771,3749 5039,905 5127,946 "/>
    <polygon id="209" class="fil186" points="3771,3749 5110,938 5197,981 "/>
    <polygon id="210" class="fil187" points="3771,3749 5179,972 5265,1017 "/>
    <polygon id="211" class="fil188" points="3771,3749 5248,1008 5333,1055 "/>
    <polygon id="212" class="fil189" points="3771,3749 5316,1046 5400,1095 "/>
    <polygon id="213" class="fil190" points="3771,3749 5383,1085 5466,1136 "/>
    <polygon id="214" class="fil191" points="3771,3749 5449,1126 5531,1179 "/>
    <polygon id="215" class="fil192" points="3771,3749 5514,1168 5594,1223 "/>
    <polygon id="216" class="fil193" points="3771,3749 5578,1212 5657,1269 "/>
    <polygon id="217" class="fil193" points="3771,3749 5641,1257 5719,1316 "/>
    <polygon id="218" class="fil194" points="3771,3749 5703,1304 5779,1365 "/>
    <polygon id="219" class="fil195" points="3771,3749 5764,1353 5838,1415 "/>
    <polygon id="220" class="fil196" points="3771,3749 5823,1403 5896,1467 "/>
    <polygon id="221" class="fil197" points="3771,3749 5882,1454 5953,1520 "/>
    <polygon id="222" class="fil198" points="3771,3749 5939,1507 6008,1574 "/>
    <polygon id="223" class="fil198" points="3771,3749 5994,1561 6062,1630 "/>
    <polygon id="224" class="fil199" points="3771,3749 6048,1616 6115,1687 "/>
    <polygon id="225" class="fil200" points="3771,3749 6101,1673 6166,1745 "/>
    <polygon id="226" class="fil201" points="3771,3749 6153,1731 6216,1805 "/>
    <polygon id="227" class="fil202" points="3771,3749 6203,1790 6264,1865 "/>
    <polygon id="228" class="fil203" points="3771,3749 6252,1850 6311,1927 "/>
    <polygon id="229" class="fil204" points="3771,3749 6299,1911 6356,1990 "/>
    <polygon id="230" class="fil204" points="3771,3749 6344,1974 6399,2054 "/>
    <polygon id="231" class="fil205" points="3771,3749 6388,2038 6442,2118 "/>
    <polygon id="232" class="fil206" points="3771,3749 6431,2102 6482,2184 "/>
    <polygon id="233" class="fil207" points="3771,3749 6472,2168 6521,2251 "/>
    <polygon id="234" class="fil208" points="3771,3749 6511,2235 6558,2319 "/>
    <polygon id="235" class="fil209" points="3771,3749 6549,2302 6594,2387 "/>
    <polygon id="236" class="fil210" points="3771,3749 6585,2370 6627,2457 "/>
    <polygon id="237" class="fil210" points="3771,3749 6619,2440 6660,2527 "/>
    <polygon id="238" class="fil211" points="3771,3749 6651,2510 6690,2598 "/>
    <polygon id="239" class="fil212" points="3771,3749 6682,2580 6719,2670 "/>
    <polygon id="240" class="fil213" points="3771,3749 6711,2652 6745,2742 "/>
    <polygon id="241" class="fil214" points="3771,3749 6739,2724 6770,2815 "/>
    <polygon id="242" class="fil215" points="3771,3749 6764,2797 6794,2888 "/>
    <polygon id="243" class="fil216" points="3771,3749 6788,2870 6815,2962 "/>
    <polygon id="244" class="fil216" points="3771,3749 6810,2944 6835,3037 "/>
    <polygon id="245" class="fil217" points="3771,3749 6830,3018 6852,3111 "/>
    <polygon id="246" class="fil218" points="3771,3749 6848,3093 6868,3187 "/>
    <polygon id="247" class="fil219" points="3771,3749 6864,3168 6882,3262 "/>
    <polygon id="248" class="fil220" points="3771,3749 6879,3243 6894,3338 "/>
    <polygon id="249" class="fil221" points="3771,3749 6891,3319 6905,3414 "/>
    <polygon id="250" class="fil222" points="3771,3749 6902,3395 6913,3491 "/>
    <polygon id="251" class="fil222" points="3771,3749 6911,3472 6919,3567 "/>
    <polygon id="252" class="fil223" points="3771,3749 6918,3548 6924,3644 "/>
    <polygon id="253" class="fil224" points="3771,3749 6923,3625 6927,3720 "/>
    <polygon id="254" class="fil225" points="3771,3749 6926,3701 6927,3797 "/>
    <polygon id="255" class="fil226" points="3771,3749 6927,3778 6926,3855 "/>
   </g>
  </g>
 </g>
</svg>
