<?xml version="1.0" encoding="UTF-8"?>
<!DOCTYPE svg PUBLIC "-//W3C//DTD SVG 1.1//EN" "http://www.w3.org/Graphics/SVG/1.1/DTD/svg11.dtd">
<!-- Creator: CorelDRAW X7 -->
<svg xmlns="http://www.w3.org/2000/svg" xml:space="preserve" width="7.5in" height="7.5in" version="1.1" style="shape-rendering:geometricPrecision; text-rendering:geometricPrecision; image-rendering:optimizeQuality; fill-rule:evenodd; clip-rule:evenodd"
viewBox="0 0 7567 7567"
 xmlns:xlink="http://www.w3.org/1999/xlink">
 <defs>
  <style type="text/css">
   <![CDATA[
    .fil0 {fill:none}
    .fil3 {fill:black}
    .fil1 {fill:#EC8E2C}
    .fil2 {fill:black;fill-rule:nonzero}
    .fil5 {fill:#EC8E2C;fill-rule:nonzero}
    .fil4 {fill:black;fill-rule:nonzero}
   ]]>
  </style>
 </defs>
 <g id="Layer_x0020_1">
  <metadata id="CorelCorpID_0Corel-Layer"/>
  <rect class="fil0" width="7567" height="7567"/>
  <circle class="fil1" cx="3750" cy="3817" r="3128"/>
  <g id="_2228484136768">
   <path class="fil2" d="M3642 1472c457,0 883,134 1241,364l-1 0c-9,-5 -19,-10 -28,-15 -7,-3 -14,-6 -21,-10 -10,-4 -20,-9 -29,-13 -7,-3 -14,-6 -21,-9 -10,-5 -20,-10 -31,-14 -6,-3 -12,-5 -19,-8 -11,-5 -22,-9 -33,-14 -6,-2 -11,-4 -17,-6 -12,-5 -24,-9 -36,-14 -5,-2 -10,-4 -15,-6 -13,-4 -26,-9 -38,-13 -5,-2 -9,-3 -14,-5 -13,-4 -27,-9 -41,-13l-11 -3c-14,-5 -28,-9 -43,-13l-10 -3c-15,-4 -30,-8 -45,-12l0 0c-245,-92 -511,-142 -788,-142 -621,0 -1182,251 -1589,658 -407,407 -658,968 -658,1589 0,621 251,1182 658,1589 168,168 363,310 578,418l5 4c13,8 27,17 40,25l7 4c13,8 26,16 39,23l10 6c12,7 25,14 37,21l12 6c12,6 24,13 35,19 5,2 10,5 15,7 11,6 22,11 33,16 6,4 12,7 19,9 9,5 19,10 29,14 8,4 15,7 23,10 8,4 17,8 26,12 8,4 17,7 26,11 8,3 16,7 24,10 9,4 18,7 27,11 9,3 17,6 25,9l0 0c-402,-104 -761,-315 -1046,-599 -416,-416 -673,-991 -673,-1625 0,-635 257,-1209 673,-1625 416,-416 990,-673 1625,-673z"/>
   <circle class="fil3" cx="3642" cy="3770" r="2272"/>
   <path class="fil1" d="M3858 1592c1255,0 2273,1018 2273,2273 0,1255 -1018,2272 -2273,2272 -1255,0 -2272,-1017 -2272,-2272 0,-1255 1017,-2273 2272,-2273zm-320 779l278 0 0 476 214 -1 0 -476 272 1 3 479c145,12 221,0 367,53 193,70 330,209 333,447 2,213 -64,352 -249,462 213,50 366,175 401,403 16,131 12,270 -43,391 -61,137 -183,239 -319,297 -154,67 -324,88 -491,87l1 376c0,28 0,56 -4,83l-278 -1 0 -459 -206 0 1 457 -280 0 -1 -455 -606 0 50 -339 249 -2c38,0 71,-32 67,-70l0 -1358c5,-43 -35,-78 -77,-79l-292 -2 1 -289 577 0c15,3 36,-3 32,-23l0 -458zm279 798l0 577 356 -2c155,-1 292,-73 329,-225 7,-28 10,-57 8,-86 -12,-170 -188,-266 -347,-264l-346 0zm-1 859l0 625 456 0c227,-3 372,-96 370,-341 -1,-195 -141,-279 -340,-288l-486 4z"/>
   <path class="fil2" d="M3858 1567c635,0 1209,257 1625,673 416,416 673,990 673,1625 0,634 -257,1208 -673,1624 -416,416 -990,673 -1625,673 -634,0 -1209,-257 -1625,-673 -415,-416 -673,-990 -673,-1624 0,-635 258,-1209 673,-1625 416,-416 991,-673 1625,-673zm1589 709c-407,-407 -968,-659 -1589,-659 -620,0 -1182,252 -1589,659 -407,406 -658,968 -658,1589 0,620 251,1182 658,1589 407,406 969,658 1589,658 621,0 1182,-252 1589,-658 407,-407 658,-969 658,-1589 0,-621 -251,-1183 -658,-1589z"/>
   <path class="fil3" d="M3194 4913l-292 103 -200 -103 199 -257 334 -117 -25 -591c0,0 -32,-576 -29,-595 3,-19 10,-302 10,-302l-288 115 -200 -103 119 -252 441 16 208 -135 120 -189c0,0 -29,-202 -29,-180 0,23 79,-81 79,-81l200 103 286 -102 200 103 -135 330 160 152 129 -51 343 174 73 295 -102 232 -83 117 0 -504 -1070 0 0 1676 940 0 -97 46c0,0 -216,10 -215,26 2,15 -140,302 -140,302l-132 332 -256 -178 -217 176 -12 0 -200 -103c0,0 120,-394 120,-385 0,8 -247,-116 -239,-70zm1518 -904l18 27 107 444 -121 224 -4 2 0 -697z"/>
   <path class="fil2" d="M3858 2016c510,0 972,207 1307,542 334,334 541,796 541,1307 0,510 -207,972 -541,1306 -335,335 -797,542 -1307,542 -510,0 -972,-207 -1307,-542 -334,-334 -541,-796 -541,-1306 0,-511 207,-973 541,-1307 335,-335 797,-542 1307,-542zm1271 577c-325,-325 -774,-526 -1271,-526 -496,0 -946,201 -1271,526 -325,326 -527,775 -527,1272 0,496 202,946 527,1271 325,325 775,526 1271,526 497,0 946,-201 1271,-526 326,-325 527,-775 527,-1271 0,-497 -201,-946 -527,-1272z"/>
   <path class="fil2" d="M3858 2016c510,0 972,207 1307,542 334,334 541,796 541,1307 0,510 -207,972 -541,1306 -335,335 -797,542 -1307,542 -510,0 -972,-207 -1307,-542 -334,-334 -541,-796 -541,-1306 0,-511 207,-973 541,-1307 335,-335 797,-542 1307,-542zm1271 577c-325,-325 -774,-526 -1271,-526 -496,0 -946,201 -1271,526 -325,326 -527,775 -527,1272 0,496 202,946 527,1271 325,325 775,526 1271,526 497,0 946,-201 1271,-526 326,-325 527,-775 527,-1271 0,-497 -201,-946 -527,-1272z"/>
   <path class="fil2" d="M3338 2268l278 -1 0 477 214 -2 0 -475 272 1 3 479c145,12 221,0 367,53 193,70 330,209 333,447 2,212 -64,352 -249,462 213,50 366,175 401,403 16,131 12,270 -44,391 -60,137 -182,239 -318,297 -154,67 -324,87 -491,87l1 376c0,28 0,56 -4,83l-278 -1 0 -459 -206 0 1 457 -280 0 -1 -456 -606 1 50 -339 249 -2c38,0 71,-32 67,-71l0 -1357c4,-43 -35,-78 -77,-79l-292 -2 1 -289 577 0c15,3 36,-3 32,-23l0 -458zm279 798l0 577 356 -2c154,-1 292,-73 329,-225 7,-28 10,-57 8,-86 -12,-170 -188,-266 -347,-264l-346 0zm-2 859l1 625 456 0c227,-3 372,-96 370,-341 -2,-195 -141,-279 -340,-288l-487 4z"/>
   <path class="fil4" d="M3338 2243l278 -1 25 0 0 25 0 452 164 -1 0 -451 0 -25 25 0 272 1 25 0 1 25 2 456c27,2 52,3 74,4 92,4 164,7 277,49 106,38 196,97 258,181 56,75 89,171 91,289 1,110 -16,202 -57,281 -35,66 -85,122 -156,171 92,29 171,73 232,135 69,69 115,159 133,274l0 1c8,67 12,136 5,204 -6,69 -21,137 -51,200l0 0c-30,70 -75,130 -130,181 -58,54 -127,98 -201,129l0 0c-79,34 -162,57 -246,71 -76,12 -153,17 -229,18l0 351c0,14 0,28 0,42 -1,15 -2,30 -4,45l-3 22 -22 -1 -278 -1 -25 0 0 -25 0 -434 -156 0 1 432 0 25 -25 0 -280 0 -25 0 0 -25 -1 -430 -581 0 -29 0 4 -29 50 -338 4 -22 21 0 249 -2 0 0c2,0 3,0 5,0l0 0c10,-2 20,-6 27,-13 6,-7 10,-16 10,-25 0,-2 0,-3 0,-5l0 -3 0 -1357 0 -2c0,-1 0,-2 0,-3 1,-12 -5,-23 -13,-32 -10,-9 -22,-15 -35,-16 -2,-1 -3,-1 -4,-1l0 0 -292 -2 -25 0 0 -25 1 -289 0 -25 25 0 577 0 3 0c1,1 2,1 4,1l0 -457 0 -25 25 0zm253 50l-228 0 0 431c0,4 0,8 0,13 -2,11 -7,20 -16,27l0 0c-6,5 -14,8 -23,10l0 0c-7,1 -14,1 -20,0l-550 0 -1 239 268 2 0 0c3,0 5,0 8,1 24,2 48,13 65,30 18,18 29,42 29,69 -1,2 -1,4 -1,6l0 1354c0,3 1,6 0,9 0,23 -9,44 -24,60 -15,15 -35,25 -57,27l0 0c-3,1 -7,1 -11,1l-227 2 -43 289 577 -1 25 0 0 25 1 431 229 0 0 -432 0 -25 25 0 206 -1 25 0 0 26 0 434 231 1c0,-6 0,-11 1,-17 0,-14 0,-28 0,-41l0 0 -1 -376 0 -25 25 0c82,0 165,-5 247,-18 80,-13 159,-34 234,-67l1 0c67,-29 132,-69 186,-120 50,-46 91,-101 118,-164l1 0c26,-58 41,-121 46,-184 6,-64 3,-130 -5,-194l0 0c-16,-104 -57,-184 -118,-245 -67,-67 -157,-112 -264,-137l-60 -14 53 -32c88,-52 148,-111 185,-182 38,-71 53,-155 52,-257 -2,-107 -31,-193 -81,-261 -56,-75 -138,-128 -235,-163 -106,-39 -174,-42 -262,-46 -31,-1 -64,-3 -99,-6l-23 -2 0 -23 -3 -454 -222 -1 0 450 0 25 -25 1 -214 1 -25 1 0 -26 0 -451zm51 798l0 527 331 -2c76,-1 147,-20 203,-57 49,-34 85,-83 101,-149l1 0c3,-13 5,-26 6,-38 2,-13 2,-27 1,-40 -5,-72 -42,-129 -96,-170 -62,-47 -146,-72 -226,-71l0 0 -321 0zm-50 552l0 -577 0 -25 25 0 346 0c90,-2 185,27 257,82 64,48 109,118 115,206 1,15 1,31 -1,47 -1,16 -4,31 -8,46l0 0c-19,79 -63,138 -122,178 -64,44 -145,65 -231,66l-356 2 -25 1 0 -26zm49 307l0 575 431 -1c108,-1 195,-23 255,-73 58,-49 91,-127 90,-242 -1,-84 -30,-146 -79,-188 -55,-47 -138,-70 -237,-75l-460 4zm-50 600l-1 -625 0 -25 25 0 487 -4 1 0c110,5 203,32 268,87 60,51 95,125 96,226 1,131 -38,221 -108,280 -69,59 -167,84 -287,86l0 0 -456 0 -25 0 0 -25z"/>
   <path class="fil5" d="M3538 2371l278 0 0 476 214 -1 0 -476 272 1 3 479c145,12 221,0 367,53 193,70 330,209 333,447 2,213 -64,352 -249,462 213,50 366,175 401,403 16,131 12,270 -43,391 -61,137 -183,239 -319,297 -154,67 -324,88 -491,87l1 376c0,28 0,56 -4,83l-278 -1 0 -459 -206 0 1 457 -280 0 -1 -455 -606 0 50 -339 249 -2c38,0 71,-32 67,-70l0 -1358c5,-43 -35,-78 -77,-79l-292 -2 1 -289 577 0c15,3 36,-3 32,-23l0 -458zm279 798l0 577 356 -2c155,-1 292,-73 329,-225 7,-28 10,-57 8,-86 -11,-170 -188,-266 -347,-264l-346 0zm-1 859l0 625 456 0c227,-3 372,-96 370,-341 -1,-195 -141,-279 -340,-288l-486 4z"/>
   <path class="fil4" d="M3538 2346l278 -1 25 0 0 26 0 451 164 -1 0 -451 0 -25 25 0 272 1 25 0 1 25 2 456c27,2 52,3 74,4 92,4 164,8 277,49 106,38 196,97 258,181 56,75 89,171 91,289 1,110 -16,202 -57,281 -35,66 -85,122 -156,171 92,29 171,73 232,135 69,69 115,159 133,274l0 1c9,67 12,136 5,204 -6,69 -21,137 -50,200l0 0c-31,70 -76,130 -131,181 -58,54 -127,98 -201,129l0 0c-79,35 -162,57 -246,71 -76,12 -153,17 -229,18l0 351c0,14 0,28 0,42 -1,15 -2,30 -4,45l-3 22 -22 0 -278 -2 -25 0 0 -25 0 -434 -156 0 1 432 0 25 -25 0 -280 0 -25 0 0 -25 -1 -430 -581 0 -29 0 4 -29 50 -338 4 -22 21 0 249 -2 0 0c2,0 3,0 5,0l0 0c10,-1 20,-6 27,-13 6,-7 10,-16 10,-25 0,-2 0,-3 0,-5l0 -2 0 -1358 0 -2c0,-1 0,-2 0,-3 1,-12 -5,-23 -13,-32 -9,-9 -22,-15 -35,-16 -2,0 -3,-1 -4,-1l0 0 -292 -2 -25 0 0 -25 1 -289 0 -25 25 0 577 0 3 1c1,0 3,0 4,0l0 -457 0 -25 25 0zm253 50l-228 0 0 431c1,4 1,9 0,13 -2,11 -7,20 -16,27l0 0c-6,5 -14,8 -23,10l0 0c-6,1 -14,1 -20,1l-550 -1 -1 239 268 2 0 0c3,0 5,0 8,1 24,2 48,13 65,30 18,18 29,42 29,69 0,2 -1,4 -1,6l0 1354c0,3 1,6 1,9 -1,23 -10,44 -25,60 -15,15 -35,25 -57,28l0 0c-3,0 -7,0 -11,0l-227 2 -43 289 577 -1 25 0 0 26 1 430 229 0 0 -432 0 -25 25 0 206 0 25 0 0 25 0 434 231 1c0,-6 0,-11 1,-17 0,-14 0,-28 0,-41l0 0 -1 -376 0 -25 25 0c82,0 165,-5 247,-18 80,-13 159,-34 234,-67l1 0c68,-29 132,-69 186,-120 50,-46 91,-101 119,-164l0 0c26,-58 41,-121 46,-184 6,-64 3,-130 -5,-194l0 0c-16,-103 -57,-184 -118,-245 -67,-67 -157,-111 -264,-137l-60 -14 53 -32c88,-52 148,-111 185,-182 38,-71 53,-155 52,-257 -2,-107 -31,-193 -81,-260 -56,-76 -138,-129 -235,-164 -106,-39 -174,-42 -262,-46 -31,-1 -64,-3 -99,-6l-23 -2 0 -23 -2 -454 -223 0 0 450 0 24 -25 1 -214 2 -25 0 0 -26 0 -451zm51 799l0 526 331 -2c76,-1 147,-19 203,-57 49,-34 86,-83 101,-149l1 0c3,-13 5,-26 7,-38 1,-13 1,-27 0,-40 -5,-72 -42,-129 -95,-169 -63,-48 -147,-73 -226,-72l-1 0 -321 1zm-50 551l0 -577 0 -25 25 0 346 0c90,-1 185,27 257,82 64,48 109,118 115,206 1,15 1,31 -1,47 -1,16 -4,31 -8,46l0 0c-19,79 -63,138 -122,178 -64,44 -145,65 -231,66l-356 2 -25 1 0 -26zm49 307l0 575 431 0c108,-2 195,-24 255,-74 58,-49 91,-127 90,-242 -1,-84 -29,-146 -79,-187 -55,-48 -138,-71 -237,-76l-460 4zm-50 600l-1 -625 0 -25 25 0 487 -4 1 0c110,5 203,32 268,87 60,51 95,125 96,226 1,131 -38,221 -108,280 -69,59 -167,84 -287,86l0 0 -456 1 -25 0 0 -26z"/>
  </g>
 </g>
</svg>
