<?xml version="1.0" encoding="UTF-8"?>
<!DOCTYPE svg PUBLIC "-//W3C//DTD SVG 1.1//EN" "http://www.w3.org/Graphics/SVG/1.1/DTD/svg11.dtd">
<!-- Creator: CorelDRAW X7 -->
<svg xmlns="http://www.w3.org/2000/svg" xml:space="preserve" width="10in" height="10in" version="1.1" style="shape-rendering:geometricPrecision; text-rendering:geometricPrecision; image-rendering:optimizeQuality; fill-rule:evenodd; clip-rule:evenodd"
viewBox="0 0 10000 10000"
 xmlns:xlink="http://www.w3.org/1999/xlink">
 <defs>
  <style type="text/css">
   <![CDATA[
    .fil0 {fill:none}
    .fil1 {fill:#DDEFFF}
    .fil2 {fill:#009ADE;fill-rule:nonzero}
   ]]>
  </style>
 </defs>
 <g id="Layer_x0020_1">
  <metadata id="CorelCorpID_0Corel-Layer"/>
  <rect class="fil0" x="1283" y="1217" width="7500" height="7500"/>
  <circle class="fil1" cx="5000" cy="5000" r="3100"/>
  <path class="fil2" d="M3957 3891c128,-10 258,0 382,34 214,58 410,182 554,351 97,112 171,244 215,385 91,281 64,597 -75,858 -71,135 -170,255 -289,350 -117,94 -253,163 -397,203 -148,42 -305,51 -458,30 -170,-24 -334,-89 -475,-187 -163,-113 -296,-271 -379,-452 -115,-251 -132,-547 -45,-809 58,-180 164,-344 302,-472 181,-168 419,-272 665,-291zm16 321c-202,19 -395,120 -526,274 -89,104 -151,232 -176,366 -22,115 -18,235 12,348 33,126 98,243 186,339 122,131 289,219 466,244 162,23 331,-5 477,-81 130,-67 240,-171 315,-297 75,-124 114,-270 112,-415 -1,-191 -77,-380 -206,-521 -93,-103 -213,-181 -345,-223 -101,-32 -209,-43 -315,-34zm2573 -322c6,-3 12,-2 18,-3 147,1 294,0 440,0 14,1 26,14 24,28 0,147 2,295 1,442 -2,20 -29,30 -43,15 -30,-29 -59,-59 -88,-88 -6,-6 -15,-10 -24,-8 -13,4 -20,16 -30,25 -81,78 -159,159 -240,238 -108,109 -218,216 -326,325 -16,17 -34,32 -50,49 -9,9 -8,24 0,33 274,365 549,730 824,1095 6,9 14,17 13,28 -1,13 -12,25 -25,24 -122,0 -244,0 -366,0 -8,1 -16,-4 -21,-11 -220,-290 -440,-580 -660,-870 -8,-9 -13,-21 -25,-23 -10,-3 -20,4 -26,10 -88,88 -176,176 -263,263 -10,10 -20,18 -25,31 -6,12 -4,26 -4,39 0,178 0,356 0,534 1,14 -12,28 -27,27 -99,0 -197,0 -295,0 -14,0 -26,-14 -24,-27 0,-708 0,-1416 0,-2124 0,-10 -3,-22 4,-32 4,-7 12,-12 20,-12 99,0 197,0 295,0 15,-1 28,14 27,29 0,342 0,685 0,1028 -2,15 13,29 28,27 10,-2 17,-11 24,-18 102,-100 201,-202 303,-301 116,-117 234,-232 350,-349 84,-85 170,-168 254,-253 8,-9 22,-18 21,-32 -1,-16 -15,-24 -25,-33 -21,-22 -44,-43 -65,-65 -13,-11 -9,-34 6,-41zm-2706 531c0,-12 11,-24 24,-23 33,0 66,0 99,0 13,-2 26,10 25,23 0,29 0,58 0,86 0,6 5,11 10,11 20,0 39,0 59,0 7,0 11,-8 11,-15 0,-27 -1,-54 0,-82 -2,-13 11,-24 24,-23 33,0 66,0 99,0 12,-1 25,10 24,23 0,32 -1,65 0,97 4,6 12,4 19,6 72,8 149,25 204,77 47,44 63,111 57,174 -4,52 -23,104 -61,141 -24,26 -55,44 -88,55 66,11 130,48 163,108 33,55 34,122 22,182 -11,56 -42,108 -88,142 -61,48 -138,69 -214,78 -5,1 -14,0 -14,8 -1,33 0,65 0,98 0,12 -11,23 -23,23 -34,0 -67,0 -100,0 -13,0 -25,-10 -24,-23 -1,-29 0,-58 -1,-86 1,-8 -6,-15 -14,-14 -17,-1 -34,-1 -51,0 -7,-1 -14,4 -14,11 0,29 1,59 0,88 0,13 -13,23 -25,22 -33,0 -66,0 -99,0 -12,1 -23,-9 -23,-21 -2,-28 0,-55 -1,-82 -2,-12 -15,-19 -27,-18 -47,-1 -94,0 -141,0 -12,0 -23,-10 -23,-22 0,-34 0,-68 0,-103 -1,-12 10,-24 23,-23 39,0 79,1 118,0 10,0 14,-11 14,-19 0,-202 0,-403 0,-604 0,-14 0,-27 -2,-40 -4,-11 -17,-15 -27,-15 -35,-1 -69,0 -103,0 -13,0 -24,-11 -23,-24 0,-31 0,-63 0,-95 -1,-13 11,-24 24,-23 48,-1 96,0 144,-1 12,1 24,-10 23,-22 0,-25 -1,-50 0,-75zm163 246c-4,3 -4,8 -4,13 0,76 0,152 0,228 0,9 11,12 18,11 45,0 90,2 135,-2 38,-3 78,-16 106,-44 29,-30 38,-75 31,-115 -5,-28 -22,-53 -46,-67 -35,-20 -76,-26 -116,-27 -40,1 -81,0 -121,1l-3 2zm0 395c-4,4 -4,9 -4,14 0,83 0,165 0,248 -1,8 7,14 15,13 44,0 88,1 133,0 51,-1 105,-15 142,-52 43,-44 51,-123 8,-170 -34,-39 -89,-51 -139,-55 -49,-2 -99,-1 -148,-1 -2,1 -5,2 -7,3z"/>
 </g>
</svg>
