<?xml version="1.0" encoding="UTF-8"?>
<!DOCTYPE svg PUBLIC "-//W3C//DTD SVG 1.1//EN" "http://www.w3.org/Graphics/SVG/1.1/DTD/svg11.dtd">
<!-- Creator: CorelDRAW X7 -->
<svg xmlns="http://www.w3.org/2000/svg" xml:space="preserve" width="7.5in" height="7.5in" version="1.1" style="shape-rendering:geometricPrecision; text-rendering:geometricPrecision; image-rendering:optimizeQuality; fill-rule:evenodd; clip-rule:evenodd"
viewBox="0 0 7500 7500"
 xmlns:xlink="http://www.w3.org/1999/xlink">
 <defs>
  <style type="text/css">
   <![CDATA[
    .fil0 {fill:none}
    .fil1 {fill:url(#id0)}
    .fil8 {fill:url(#id1)}
    .fil6 {fill:url(#id2)}
    .fil7 {fill:url(#id3)}
    .fil3 {fill:url(#id4)}
    .fil2 {fill:url(#id5)}
    .fil5 {fill:url(#id6)}
    .fil4 {fill:url(#id7)}
    .fil9 {fill:url(#id8)}
   ]]>
  </style>
  <linearGradient id="id0" gradientUnits="userSpaceOnUse" x1="3750" y1="6850" x2="3750" y2="650">
   <stop offset="0" style="stop-opacity:1; stop-color:#D1D5D8"/>
   <stop offset="1" style="stop-opacity:1; stop-color:#FDFCFD"/>
  </linearGradient>
  <linearGradient id="id1" gradientUnits="userSpaceOnUse" x1="4372.79" y1="5213.17" x2="4372.79" y2="4909.94">
   <stop offset="0" style="stop-opacity:1; stop-color:#858B8F"/>
   <stop offset="1" style="stop-opacity:1; stop-color:#868D90"/>
  </linearGradient>
  <linearGradient id="id2" gradientUnits="userSpaceOnUse" x1="4373.28" y1="2286.83" x2="4373.28" y2="2532.74">
   <stop offset="0" style="stop-opacity:1; stop-color:#93989C"/>
   <stop offset="1" style="stop-opacity:1; stop-color:#AAAFB2"/>
  </linearGradient>
  <linearGradient id="id3" gradientUnits="userSpaceOnUse" x1="5451.23" y1="4984.79" x2="4966.08" y2="4247.78">
   <stop offset="0" style="stop-opacity:1; stop-color:#3B444A"/>
   <stop offset="1" style="stop-opacity:1; stop-color:#3B444A"/>
  </linearGradient>
  <linearGradient id="id4" gradientUnits="userSpaceOnUse" x1="2177.4" y1="5271.96" x2="3034.81" y2="3691.21">
   <stop offset="0" style="stop-opacity:1; stop-color:#699699"/>
   <stop offset="1" style="stop-opacity:1; stop-color:#73A4A6"/>
  </linearGradient>
  <linearGradient id="id5" gradientUnits="userSpaceOnUse" x1="2194.26" y1="2254.37" x2="3062.97" y2="3889.39">
   <stop offset="0" style="stop-opacity:1; stop-color:#73A2A8"/>
   <stop offset="1" style="stop-opacity:1; stop-color:#71B5BF"/>
  </linearGradient>
  <linearGradient id="id6" gradientUnits="userSpaceOnUse" x1="5183.94" y1="3467.41" x2="5183.94" y2="2286.83">
   <stop offset="0" style="stop-opacity:1; stop-color:#676F74"/>
   <stop offset="1" style="stop-opacity:1; stop-color:#3B444A"/>
  </linearGradient>
  <linearGradient id="id7" gradientUnits="userSpaceOnUse" x1="3484.28" y1="2315.5" x2="4294.09" y2="3833.89">
   <stop offset="0" style="stop-opacity:1; stop-color:#005661"/>
   <stop offset="1" style="stop-opacity:1; stop-color:#048293"/>
  </linearGradient>
  <linearGradient id="id8" gradientUnits="userSpaceOnUse" x1="3460.31" y1="5233.51" x2="4273.05" y2="3729.65">
   <stop offset="0" style="stop-opacity:1; stop-color:#08575C"/>
   <stop offset="1" style="stop-opacity:1; stop-color:#096166"/>
  </linearGradient>
 </defs>
 <g id="Layer_x0020_1">
  <metadata id="CorelCorpID_0Corel-Layer"/>
  <rect class="fil0" width="7500" height="7500"/>
  <circle class="fil1" cx="3750" cy="3750" r="3100"/>
  <g id="_2228484323792">
   <polygon class="fil2" points="1700,2287 2559,2287 3557,3750 3076,3857 2676,3750 "/>
   <polygon class="fil3" points="1655,5213 2514,5213 3557,3750 2676,3750 "/>
   <polygon class="fil4" points="2961,2287 3820,2287 4818,3750 4346,3863 3936,3750 "/>
   <polygon class="fil5" points="4936,2287 5795,2287 5013,3467 4572,2821 "/>
   <polygon class="fil6" points="4208,2287 4539,2287 4376,2533 "/>
   <polygon class="fil7" points="4986,5213 5845,5213 5016,4019 4572,4636 "/>
   <polygon class="fil8" points="4157,5213 4588,5213 4375,4910 "/>
   <polygon class="fil9" points="2916,5213 3766,5213 4818,3750 3936,3750 "/>
  </g>
 </g>
</svg>
