<?xml version="1.0" encoding="UTF-8"?>
<!DOCTYPE svg PUBLIC "-//W3C//DTD SVG 1.1//EN" "http://www.w3.org/Graphics/SVG/1.1/DTD/svg11.dtd">
<!-- Creator: CorelDRAW X7 -->
<svg xmlns="http://www.w3.org/2000/svg" xml:space="preserve" width="7.5in" height="7.5in" version="1.1" style="shape-rendering:geometricPrecision; text-rendering:geometricPrecision; image-rendering:optimizeQuality; fill-rule:evenodd; clip-rule:evenodd"
viewBox="0 0 7500 7500"
 xmlns:xlink="http://www.w3.org/1999/xlink">
 <defs>
  <style type="text/css">
   <![CDATA[
    .fil0 {fill:none}
    .fil1 {fill:#35ACF0}
    .fil2 {fill:white;fill-rule:nonzero}
   ]]>
  </style>
 </defs>
 <g id="Layer_x0020_1">
  <metadata id="CorelCorpID_0Corel-Layer"/>
  <rect class="fil0" width="7500" height="7500"/>
  <circle class="fil1" cx="3750" cy="3750" r="3100"/>
  <g id="quoine-logo.eps">
   <path class="fil2" d="M2202 3277c25,-4 54,-4 74,14 15,16 17,39 17,59 0,130 0,259 0,388 2,98 48,193 120,259 73,71 182,107 282,84 112,-24 204,-112 248,-216 21,-51 29,-108 28,-163 0,-123 0,-247 0,-370 -1,-26 18,-52 45,-55 23,-3 50,-5 69,11 18,13 21,36 21,56 -1,138 0,275 -1,413 -8,225 -190,436 -416,463 -61,10 -123,2 -182,-14 -113,-32 -208,-110 -271,-207 -52,-79 -79,-173 -81,-267 1,-129 0,-258 1,-388 -1,-29 14,-63 46,-67zm2224 4c23,-8 53,-11 75,3 51,45 95,96 145,141 162,161 324,323 486,485 25,23 49,49 75,72 2,-214 0,-429 1,-644 -2,-26 13,-53 39,-60 26,-5 57,-6 79,12 18,17 18,44 20,66 0,261 0,522 0,783 -2,24 -1,53 -21,71 -20,16 -48,18 -72,13 -19,-6 -33,-22 -48,-36 -94,-94 -189,-186 -282,-281 -82,-80 -161,-163 -244,-242 -50,-48 -97,-99 -149,-146 -1,215 1,430 0,645 1,23 -11,46 -33,56 -27,10 -61,9 -84,-9 -19,-18 -20,-47 -21,-72 0,-260 0,-521 0,-781 1,-28 4,-64 34,-76zm-2951 13c80,-23 166,-25 248,-8 152,34 281,150 337,295 48,132 38,287 -34,409 -9,16 -23,29 -27,48 21,19 40,39 60,58 14,15 30,33 30,55 2,29 -21,50 -43,65 -20,14 -47,11 -65,-4 -28,-24 -52,-53 -80,-77 -9,-2 -15,7 -23,10 -96,68 -219,92 -334,75 -215,-26 -397,-222 -404,-439 -6,-89 11,-180 55,-258 61,-108 161,-194 280,-229zm-198 420c-8,75 9,154 51,217 41,63 102,114 174,139 97,33 210,22 297,-36 -6,-7 -13,-15 -19,-22 -69,-69 -138,-137 -207,-206 -15,-15 -28,-34 -24,-56 6,-27 26,-48 49,-60 24,-11 52,-3 70,16 66,65 131,131 197,197 11,11 21,23 35,30 45,-70 61,-156 49,-237 -23,-160 -176,-292 -338,-284 -167,-6 -321,137 -334,302zm2304 -435c90,-11 183,-2 265,37 92,42 170,116 220,204 57,101 70,222 47,334 -24,119 -101,222 -199,291 -159,110 -388,107 -543,-9 -75,-55 -137,-131 -169,-219 -41,-114 -39,-243 8,-355 65,-149 208,-264 371,-283zm10 136c-93,15 -176,72 -227,150 -54,80 -67,184 -43,276 22,81 78,151 148,197 80,51 183,63 274,38 89,-26 165,-91 208,-173 34,-65 41,-141 31,-213 -18,-110 -97,-206 -197,-251 -61,-28 -129,-31 -194,-24zm634 -135c21,-7 46,-7 68,0 26,9 34,40 34,64 0,261 0,522 0,782 0,27 3,56 -14,78 -35,39 -122,25 -122,-36 -1,-276 0,-553 -1,-830 -1,-24 12,-48 35,-58zm1224 -1c9,-4 19,-3 29,-4 274,0 549,0 824,0 26,-1 52,18 56,44 5,26 5,58 -16,77 -25,20 -59,16 -88,16 -257,0 -514,0 -770,0 -25,-1 -55,-6 -66,-31 -17,-35 -10,-88 31,-102zm-5 409c20,-10 43,-6 64,-7 263,0 525,0 788,0 25,-1 54,13 61,39 6,22 6,48 -4,69 -12,23 -39,30 -63,30 -269,0 -537,0 -806,0 -26,1 -58,-9 -68,-36 -13,-32 -7,-81 28,-95zm6 404c8,-4 18,-3 28,-4 273,1 546,0 818,0 28,-1 57,15 62,44 5,27 5,62 -19,80 -21,16 -49,13 -73,13 -263,0 -526,0 -788,0 -25,1 -55,-10 -62,-37 -14,-33 -6,-84 34,-96z"/>
  </g>
 </g>
</svg>
