<?xml version="1.0" encoding="UTF-8"?>
<!DOCTYPE svg PUBLIC "-//W3C//DTD SVG 1.1//EN" "http://www.w3.org/Graphics/SVG/1.1/DTD/svg11.dtd">
<!-- Creator: CorelDRAW X7 -->
<svg xmlns="http://www.w3.org/2000/svg" xml:space="preserve" width="10in" height="10in" version="1.1" style="shape-rendering:geometricPrecision; text-rendering:geometricPrecision; image-rendering:optimizeQuality; fill-rule:evenodd; clip-rule:evenodd"
viewBox="0 0 10000 10000"
 xmlns:xlink="http://www.w3.org/1999/xlink">
 <defs>
  <style type="text/css">
   <![CDATA[
    .fil0 {fill:none}
    .fil1 {fill:#383838}
    .fil3 {fill:#3CAF49;fill-rule:nonzero}
    .fil2 {fill:white;fill-rule:nonzero}
   ]]>
  </style>
 </defs>
 <g id="Layer_x0020_1">
  <metadata id="CorelCorpID_0Corel-Layer"/>
  <rect class="fil0" x="1283" y="1217" width="7500" height="7500"/>
  <circle class="fil1" cx="5000" cy="5000" r="3100"/>
  <g id="_2228686860096">
   <path class="fil2" d="M6272 3528c55,45 102,98 153,147 48,54 93,109 136,167 323,442 456,1011 337,1576 -6,30 -13,60 -22,89 -7,26 -17,50 -27,74 -19,26 -40,52 -73,59 -3,1 -9,2 -11,3 -8,0 -16,0 -23,1 -3,-7 -8,-8 -15,-4 -47,-11 -90,-31 -132,-54 -156,-84 -310,-179 -428,-313 -62,-69 -111,-149 -147,-234 -86,-208 -61,-382 -148,-604 -57,-144 -142,-276 -242,-393 -50,-60 -107,-114 -163,-170 -86,-78 -177,-150 -272,-217 -28,-20 -56,-43 -90,-52 -77,-21 -105,46 -132,105 -84,172 -174,341 -255,515 -22,46 -45,92 -80,129 -100,108 -223,35 -269,73 -36,27 -54,70 -81,105 -116,162 -235,323 -348,488 -38,54 -71,111 -117,159 -26,25 -60,46 -98,45 -52,1 -96,-31 -134,-62 -25,-22 -49,-54 -85,-55 -37,-1 -64,28 -86,54 -97,118 -197,235 -295,353 -2,2 -5,7 -7,9 -83,-384 -87,-794 43,-1168 154,-459 554,-921 1007,-1118 703,-330 1545,-191 2104,293z"/>
   <path class="fil3" d="M5032 3714c41,24 78,55 117,82 123,92 242,191 347,304 100,108 185,231 240,369 32,81 53,167 63,254 11,108 33,214 70,315 52,142 132,273 239,379 123,126 276,220 436,291 53,25 111,46 151,91 24,28 29,66 23,101 -26,75 -72,141 -116,207 -222,327 -554,574 -924,711 -175,65 -360,104 -546,120 -27,3 -54,0 -81,7l-144 0c-27,-7 -55,-3 -82,-7 -251,-19 -499,-88 -722,-205 -35,-20 -70,-45 -96,-76 -12,-19 -23,-40 -22,-63 -1,-35 16,-67 35,-95 31,-44 70,-82 107,-121 28,-34 61,-63 90,-95 25,-32 57,-58 83,-89 25,-30 55,-55 80,-85 26,-30 56,-55 81,-86 30,-35 66,-64 95,-99 36,-41 77,-76 111,-117 118,-124 222,-267 272,-432 11,-41 23,-86 10,-129 -9,-37 -39,-65 -73,-80 -31,-14 -69,-23 -103,-8 -51,20 -79,71 -99,119 -29,70 -70,135 -122,191 -101,107 -239,170 -379,211 -51,14 -101,30 -154,37 21,-36 46,-70 68,-105 57,-85 114,-170 164,-259 25,-51 58,-105 47,-164 -10,-43 -48,-70 -76,-101 42,-40 94,-70 136,-112 34,-32 61,-72 74,-117 9,-35 10,-72 10,-108 0,-33 23,-65 55,-73 48,-10 96,4 145,2 47,-1 95,0 142,0 65,-6 131,-7 195,-24 48,-13 97,-38 119,-85 33,-66 24,-143 23,-214 -19,-216 -59,-428 -89,-642z"/>
  </g>
 </g>
</svg>
