<?xml version="1.0" encoding="UTF-8"?>
<!DOCTYPE svg PUBLIC "-//W3C//DTD SVG 1.1//EN" "http://www.w3.org/Graphics/SVG/1.1/DTD/svg11.dtd">
<!-- Creator: CorelDRAW X7 -->
<svg xmlns="http://www.w3.org/2000/svg" xml:space="preserve" width="10in" height="10in" version="1.1" style="shape-rendering:geometricPrecision; text-rendering:geometricPrecision; image-rendering:optimizeQuality; fill-rule:evenodd; clip-rule:evenodd"
viewBox="0 0 10000 10000"
 xmlns:xlink="http://www.w3.org/1999/xlink">
 <defs>
  <style type="text/css">
   <![CDATA[
    .fil0 {fill:none}
    .fil1 {fill:#2C5976}
    .fil3 {fill:#00A9D2;fill-rule:nonzero}
    .fil2 {fill:white;fill-rule:nonzero}
   ]]>
  </style>
 </defs>
 <g id="Layer_x0020_1">
  <metadata id="CorelCorpID_0Corel-Layer"/>
  <rect class="fil0" x="1283" y="1217" width="7500" height="7500"/>
  <circle class="fil1" cx="5000" cy="5000" r="3100"/>
  <g id="logoyo.eps">
   <path class="fil2" d="M2905 4366c101,0 201,-1 302,3 79,205 218,388 253,609 38,-220 168,-409 254,-612 88,0 176,0 264,-1 -122,239 -246,476 -371,713 -17,35 -38,70 -36,111 -2,145 1,290 0,436 -82,0 -165,0 -247,0 -4,-154 7,-308 -5,-461 -130,-269 -275,-533 -414,-798zm1437 351c151,-31 329,-5 432,119 103,122 116,293 99,446 -14,140 -97,279 -232,332 -169,66 -390,43 -510,-104 -109,-144 -117,-342 -76,-511 32,-139 146,-256 287,-282zm54 196c-92,28 -114,134 -120,217 -5,95 1,205 70,277 75,80 225,49 263,-53 42,-112 40,-242 -2,-354 -29,-83 -132,-121 -211,-87z"/>
   <path class="fil3" d="M5045 4376c175,-20 353,-35 530,-14 91,12 187,42 250,115 76,83 78,210 42,312 -30,84 -112,128 -182,173 71,28 151,56 195,125 103,160 42,401 -132,483 -217,108 -469,70 -701,48 -7,-414 -2,-828 -2,-1242zm243 189c-6,110 -6,221 -3,331 102,-2 219,8 300,-68 79,-57 72,-199 -21,-238 -86,-41 -184,-24 -276,-25zm-4 526c-1,111 -1,222 0,333 110,5 236,25 330,-46 81,-58 81,-201 -9,-250 -98,-53 -214,-34 -321,-37zm877 -724c85,-41 220,-4 231,102 3,139 -212,179 -282,71 -40,-57 -12,-145 51,-173zm447 194c79,-21 157,-43 236,-65 0,78 1,155 1,232 73,0 147,1 220,4 -1,64 -2,128 -3,191 -72,1 -145,1 -217,1 5,154 -14,309 11,462 28,86 135,37 197,29 14,60 28,120 42,179 -116,41 -247,80 -367,32 -83,-31 -114,-124 -118,-204 -11,-165 -2,-331 -4,-497 -41,0 -80,0 -121,1 -3,-66 -3,-131 -3,-197 41,-1 82,-1 123,-2 1,-55 1,-111 3,-166zm-486 168c80,-1 159,-1 239,0 0,299 0,597 0,896 -80,0 -159,0 -239,0 0,-299 0,-598 0,-896z"/>
  </g>
 </g>
</svg>
